<?xml version="1.0" standalone="no"?>
<!DOCTYPE svg PUBLIC "-//W3C//DTD SVG 20010904//EN"
 "http://www.w3.org/TR/2001/REC-SVG-20010904/DTD/svg10.dtd">
<svg version="1.0" xmlns="http://www.w3.org/2000/svg"
 width="500.000000pt" height="500.000000pt" viewBox="0 0 500.000000 500.000000"
 preserveAspectRatio="xMidYMid meet">

<g transform="translate(0.000000,500.000000) scale(0.100000,-0.100000)"
fill="#000000" stroke="none">
<path d="M2422 4806 c-64 -21 -118 -63 -178 -136 -146 -180 -347 -415 -357
-419 -7 -2 -24 -12 -39 -23 -23 -16 -31 -17 -50 -7 -33 18 -95 17 -177 -3 -94
-23 -98 -23 -103 6 -4 19 -1 22 16 18 20 -5 20 -5 2 22 -13 21 -15 31 -7 39
11 11 24 1 34 -27 2 -5 13 -3 25 5 19 12 25 11 51 -9 43 -31 67 -29 35 3 -14
14 -31 25 -38 25 -18 0 -30 30 -17 43 14 14 41 0 41 -21 0 -24 33 -54 57 -51
10 1 30 -3 45 -11 31 -15 73 -6 48 10 -10 7 -11 10 -2 10 6 0 12 12 12 28 1
24 2 25 14 10 19 -25 27 -22 20 7 -4 15 -2 25 5 25 6 0 10 6 9 13 -2 7 5 11
18 9 23 -3 42 34 21 41 -6 2 -7 9 -3 15 5 8 13 9 26 2 24 -13 48 13 31 34 -14
16 0 29 33 31 10 1 31 17 45 35 14 17 43 50 64 72 25 25 37 45 33 55 -4 11 -2
14 9 9 9 -3 21 5 32 22 9 15 26 37 37 50 l20 23 -624 -4 c-704 -4 -686 -2
-857 -82 -112 -53 -165 -89 -254 -173 -120 -112 -203 -258 -247 -430 l-27
-107 1 -550 c1 -302 2 -829 3 -1169 l1 -620 32 49 c18 26 43 64 55 84 12 19
28 40 36 46 14 10 30 42 32 61 0 6 15 23 32 38 18 15 30 32 27 39 -2 7 6 17
18 22 16 7 22 17 20 31 -2 16 4 23 23 28 17 4 25 12 22 20 -3 8 3 16 15 19 14
4 19 11 15 21 -4 9 -3 15 1 13 4 -1 7 1 7 5 0 3 10 17 23 31 20 21 21 25 7 37
-21 17 -19 30 5 30 31 0 30 37 -2 80 -19 26 -19 29 -4 58 20 39 20 71 0 100
-17 25 -64 52 -90 52 -9 0 -32 11 -50 25 -18 14 -39 25 -48 25 -8 0 -28 11
-43 25 l-28 25 40 -19 c32 -16 41 -17 43 -6 2 9 12 4 30 -16 27 -29 72 -45
100 -34 21 8 0 29 -54 57 -44 22 -57 38 -29 38 21 0 19 22 -4 47 -11 12 -17
24 -14 27 4 3 1 6 -5 6 -7 0 -12 -10 -12 -22 0 -15 -3 -19 -10 -12 -7 7 -6 24
5 53 8 24 15 45 15 47 0 2 -20 13 -45 24 -27 12 -51 32 -60 49 -8 16 -20 31
-27 33 -17 6 -13 97 6 133 9 17 16 24 16 16 0 -17 37 21 103 105 37 48 57 64
90 74 50 15 62 23 99 74 19 27 28 51 28 78 0 35 -6 46 -53 89 -28 27 -60 49
-69 49 -26 0 -88 32 -82 42 3 5 0 15 -6 23 -18 22 -20 105 -4 137 17 33 18 72
3 96 -9 15 -5 28 22 72 45 76 88 130 103 130 7 0 32 14 57 32 25 19 37 24 26
12 -22 -27 -22 -31 6 -36 28 -5 70 34 85 80 10 29 8 35 -16 58 l-27 25 28 -10
c31 -12 31 -10 -6 42 -16 23 -26 28 -48 25 -21 -3 -26 -1 -19 7 12 14 3 25
-20 25 -9 0 -17 6 -17 13 0 11 7 11 40 0 63 -22 90 -39 124 -77 17 -20 38 -36
45 -36 8 0 25 -23 37 -50 18 -39 21 -59 16 -92 -9 -50 -52 -98 -89 -98 -14 0
-41 -9 -60 -19 -19 -11 -36 -17 -39 -14 -3 2 -15 2 -26 -2 -23 -7 -40 -33 -47
-73 -3 -15 -10 -31 -16 -37 -15 -14 0 64 17 91 13 20 12 22 -8 28 -54 14 -102
-80 -74 -146 21 -50 65 -97 100 -107 26 -8 28 -9 9 -10 -13 -1 -32 4 -43 9
-10 6 -19 7 -19 2 0 -17 65 -92 80 -92 8 0 35 -14 59 -30 24 -17 50 -30 56
-30 7 0 18 -7 25 -15 7 -8 19 -15 26 -15 8 0 14 7 14 15 0 8 -5 15 -10 15 -6
0 -9 6 -8 13 2 6 -4 11 -13 11 -9 -1 -16 6 -15 15 1 11 -9 17 -33 19 -24 3
-31 6 -21 12 12 7 11 13 -5 31 -11 12 -30 25 -42 30 -13 5 -23 13 -23 18 0 15
91 -26 121 -55 25 -24 45 -33 34 -14 -3 5 0 7 7 4 16 -6 66 -116 74 -164 4
-19 11 -41 16 -47 7 -9 1 -18 -23 -30 -18 -10 -50 -33 -71 -52 -32 -28 -41
-32 -49 -20 -8 12 -10 12 -18 0 -5 -8 -26 -14 -47 -15 -47 -2 -116 -58 -97
-77 6 -6 9 -18 6 -25 -4 -11 2 -10 25 3 17 10 34 29 37 42 l6 24 16 -22 c8
-12 13 -24 12 -25 -2 -2 -24 -16 -49 -31 -25 -16 -50 -35 -56 -43 -8 -11 -13
-12 -18 -4 -11 19 -73 15 -86 -5 -9 -16 -10 -15 -5 5 5 18 2 22 -17 22 -30 -1
-65 -31 -74 -64 -5 -21 -3 -25 10 -20 11 4 16 1 16 -10 0 -9 -1 -16 -2 -16 -2
0 -21 -6 -43 -14 -39 -14 -39 -14 -36 -60 3 -47 -5 -56 -28 -33 -10 10 -11 9
-6 -5 4 -10 11 -18 16 -18 5 0 9 -6 9 -14 0 -16 59 -56 82 -56 8 0 23 9 34 21
15 17 16 23 6 40 -12 19 -6 24 22 13 8 -3 13 -11 10 -18 -3 -8 5 -13 25 -13
30 0 81 -26 81 -43 0 -5 -21 -7 -47 -3 -61 7 -89 -17 -78 -66 8 -37 18 -39 33
-8 10 19 11 18 6 -14 -6 -38 11 -84 40 -108 8 -7 43 -19 78 -27 34 -8 70 -22
80 -31 31 -28 59 -81 60 -113 1 -31 18 -55 18 -26 0 9 4 16 9 16 5 0 16 16 26
36 9 20 24 44 33 55 20 23 23 59 5 59 -20 0 -16 18 7 32 24 15 26 28 5 28 -8
0 -15 5 -15 11 0 5 5 7 10 4 6 -3 10 4 10 17 0 15 -3 19 -8 10 -11 -16 -72 -4
-72 14 0 17 17 18 23 2 3 -9 10 -8 25 6 22 19 22 19 45 -6 13 -14 34 -29 45
-33 26 -7 27 -26 8 -106 -12 -48 -36 -85 -187 -280 -96 -123 -221 -286 -279
-362 -58 -76 -140 -184 -182 -240 -77 -101 -78 -103 -78 -162 l0 -59 50 69
c28 39 96 130 153 203 56 73 117 155 135 181 33 48 34 49 68 38 19 -6 34 -14
34 -18 0 -4 6 -9 14 -12 9 -4 13 2 12 16 -1 18 -6 21 -27 19 -47 -6 -51 18
-11 73 l37 49 9 -27 c6 -15 13 -27 18 -27 11 0 9 11 -6 39 -15 27 -32 1 194
293 59 76 82 94 75 58 -3 -17 0 -20 14 -15 22 7 46 -19 35 -37 -6 -10 -3 -9 9
1 22 18 21 24 -5 36 -12 6 -24 16 -26 24 -3 8 0 11 6 7 13 -8 62 50 62 73 0 9
7 26 15 37 13 18 14 17 15 -19 0 -46 20 -88 56 -116 14 -11 23 -25 19 -30 -3
-7 0 -8 9 -5 9 3 16 2 16 -4 0 -14 -28 -35 -38 -28 -5 3 -24 -14 -43 -37 -38
-45 -229 -283 -267 -331 -22 -28 -23 -28 -42 -11 -11 10 -20 23 -20 29 0 17
-38 38 -45 26 -4 -6 -3 -9 2 -8 5 2 24 -14 42 -34 l33 -38 -119 -156 c-65 -86
-129 -171 -143 -190 -135 -184 -285 -372 -293 -367 -6 3 -7 1 -3 -5 3 -5 -6
-24 -20 -41 -23 -28 -25 -36 -19 -82 4 -29 15 -75 24 -103 l16 -51 48 -3 c31
-2 45 -7 41 -14 -4 -6 -7 -24 -6 -39 1 -25 -3 -29 -25 -29 l-25 0 27 -47 c69
-120 175 -234 290 -312 94 -64 137 -86 242 -118 l88 -28 1490 -3 c1008 -2
1510 1 1551 8 203 34 376 129 521 284 62 67 153 198 153 220 0 3 -13 6 -29 6
-22 0 -30 5 -33 22 -8 48 0 58 51 58 l48 0 16 58 c27 100 29 129 12 155 -8 13
-12 27 -8 32 5 4 3 5 -4 1 -14 -8 -39 31 -35 54 2 12 1 12 -6 2 -7 -10 -15 -4
-33 25 -13 21 -46 67 -73 102 -32 40 -46 66 -38 69 6 2 12 8 12 14 0 7 -5 6
-14 -1 -11 -10 -35 17 -126 141 l-112 153 33 27 c18 15 36 25 40 22 21 -12 89
-129 84 -143 -3 -8 -3 -12 1 -9 4 4 15 3 26 -3 18 -10 19 -9 3 18 -8 15 -31
49 -50 75 -34 46 -52 115 -29 111 6 -1 11 8 10 20 -2 40 18 26 80 -57 l62 -81
-28 -14 c-30 -14 -51 -58 -24 -47 8 3 14 0 14 -6 0 -7 5 -7 14 2 8 6 13 17 10
24 -3 8 1 16 9 19 10 4 43 -34 102 -116 49 -67 92 -126 97 -132 4 -5 8 18 8
50 l0 60 -113 152 c-61 83 -157 213 -212 289 -55 75 -125 169 -155 208 -90
116 -93 123 -75 148 9 15 15 45 15 84 0 34 3 69 6 78 10 26 25 18 18 -9 -3
-14 -2 -25 3 -25 6 0 13 -32 17 -71 3 -39 13 -80 21 -92 14 -20 14 -20 24 5
11 29 34 41 49 26 14 -14 -3 -48 -23 -48 -8 0 -15 -7 -15 -15 0 -8 7 -15 15
-15 9 0 15 -9 15 -22 0 -17 3 -19 12 -10 18 18 38 14 38 -8 0 -11 -4 -20 -10
-20 -15 0 -12 -22 6 -45 16 -20 16 -20 31 3 18 25 43 29 43 7 0 -9 -11 -20
-25 -25 -27 -10 -34 -30 -11 -30 7 0 19 -7 26 -15 10 -11 10 -15 0 -15 -6 0
-10 -6 -7 -12 2 -7 10 -12 16 -11 6 2 11 -5 12 -15 0 -13 3 -12 11 5 14 29 48
31 48 3 0 -13 -7 -20 -20 -20 -28 0 -26 -38 3 -50 12 -5 18 -9 14 -9 -4 -1 -3
-10 3 -21 6 -11 15 -18 20 -15 6 3 7 0 5 -7 -7 -18 67 -119 83 -113 13 5 17
-11 3 -17 -5 -2 14 -38 42 -80 34 -52 54 -74 59 -65 12 18 10 2207 -2 2303
-45 359 -267 640 -603 764 -120 44 -196 50 -624 50 -261 0 -402 -3 -398 -10 9
-14 -13 -50 -31 -50 -12 0 -15 7 -12 30 l5 30 -155 0 c-136 0 -153 -2 -142
-15 7 -8 19 -15 26 -15 8 0 13 -6 12 -12 -2 -8 6 -12 20 -11 14 2 22 -3 22
-12 0 -8 -5 -15 -11 -15 -8 0 -8 -4 1 -14 6 -8 17 -14 23 -12 7 1 9 1 4 -1 -4
-3 2 -18 14 -34 15 -21 26 -28 40 -24 14 5 19 2 19 -10 0 -11 -5 -15 -15 -11
-32 12 -13 -15 23 -32 38 -18 39 -18 48 2 5 12 18 21 29 21 28 0 26 -37 -2
-50 -13 -5 -25 -16 -28 -25 -6 -15 20 -40 42 -40 8 0 13 -8 11 -17 -2 -13 3
-17 20 -16 21 3 23 0 18 -27 -5 -34 10 -40 30 -12 9 12 16 14 24 6 8 -8 7 -14
-5 -24 -8 -7 -15 -19 -15 -28 0 -13 3 -13 19 2 17 16 19 16 25 0 6 -15 8 -15
27 2 17 15 22 16 29 4 6 -9 4 -20 -6 -31 -19 -21 -18 -30 3 -22 12 5 15 2 10
-10 -9 -23 5 -21 37 4 l27 21 6 -21 c7 -28 31 -27 35 2 2 16 10 22 30 22 14 0
30 3 34 8 11 10 42 9 49 -3 4 -6 0 -21 -8 -33 -15 -23 -17 -44 -4 -39 4 1 2
-8 -5 -20 -7 -13 -14 -25 -15 -27 -1 -1 -7 1 -14 5 -16 10 -48 14 -124 18 -33
1 -77 10 -98 20 -21 9 -42 14 -47 11 -6 -4 -10 -2 -10 3 0 4 -13 15 -29 23
-29 14 -57 46 -246 280 -125 156 -185 216 -240 240 -58 26 -149 32 -203 15z
m145 -61 c66 -20 83 -37 332 -344 l93 -115 -26 -13 c-23 -12 -29 -12 -42 2 -8
8 -17 15 -20 15 -7 0 1 -25 11 -32 6 -5 2 -16 -11 -29 l-21 -21 -21 30 c-12
16 -35 35 -52 42 -27 11 -166 170 -275 314 l-29 38 -21 -24 c-11 -14 -45 -55
-75 -92 -30 -36 -60 -64 -67 -62 -7 3 -10 -1 -7 -9 4 -9 -24 -51 -69 -104 -41
-49 -77 -95 -79 -102 -4 -11 -9 -11 -24 2 -37 32 -60 39 -91 28 -16 -5 -39 -6
-50 -2 -19 7 -6 26 133 193 201 241 230 269 290 286 63 17 62 17 121 -1z
m-512 -55 c0 -8 -8 -16 -17 -18 -13 -2 -18 3 -18 18 0 15 5 20 18 18 9 -2 17
-10 17 -18z m995 -41 c0 -5 -7 -9 -15 -9 -15 0 -20 12 -9 23 8 8 24 -1 24 -14z
m1010 -13 c0 -7 -7 -19 -15 -26 -20 -16 -38 -1 -29 23 7 20 44 23 44 3z
m-1950 -6 c0 -5 -4 -10 -10 -10 -5 0 -10 5 -10 10 0 6 5 10 10 10 6 0 10 -4
10 -10z m825 0 c3 -5 -1 -10 -9 -10 -9 0 -16 5 -16 10 0 6 4 10 9 10 6 0 13
-4 16 -10z m-1221 -62 c55 -55 57 -158 3 -158 -70 0 -127 120 -80 172 23 26
40 23 77 -14z m1386 22 c0 -5 -4 -10 -10 -10 -5 0 -10 5 -10 10 0 6 5 10 10
10 6 0 10 -4 10 -10z m390 0 c0 -5 -4 -10 -10 -10 -5 0 -10 5 -10 10 0 6 5 10
10 10 6 0 10 -4 10 -10z m-1502 -18 c2 -7 -3 -12 -12 -12 -9 0 -16 7 -16 16 0
17 22 14 28 -4z m67 -1 c3 -5 1 -12 -5 -16 -5 -3 -10 1 -10 9 0 18 6 21 15 7z
m1808 -3 c6 -19 -11 -48 -29 -48 -20 0 -29 27 -14 45 15 18 37 19 43 3z
m-2937 -25 c24 -16 43 -32 44 -36 0 -5 -4 -5 -10 -2 -5 3 -10 2 -10 -4 0 -5 4
-13 10 -16 5 -3 7 -19 4 -35 -5 -24 0 -35 27 -62 24 -24 34 -29 37 -18 3 7 0
16 -6 18 -7 2 -12 13 -12 24 0 14 18 0 71 -55 43 -46 77 -73 85 -70 8 3 14 -1
14 -8 0 -7 2 -10 5 -7 8 8 -19 58 -31 58 -6 0 -17 7 -24 15 -10 12 -10 15 3
15 8 0 29 -16 47 -36 24 -27 30 -42 26 -60 -5 -17 -2 -26 9 -31 9 -3 14 -12
11 -20 -3 -8 -2 -12 3 -9 5 3 11 -10 13 -29 3 -24 0 -35 -9 -35 -7 0 -13 -8
-13 -18 0 -21 -63 -50 -126 -57 -19 -2 -23 2 -22 21 1 12 7 22 13 21 26 -5 5
37 -50 97 -53 59 -63 66 -87 61 -17 -4 -28 -2 -28 4 0 6 9 11 20 11 29 0 25
11 -24 59 -38 38 -49 43 -74 38 -21 -4 -32 -2 -35 7 -8 19 66 26 83 8 22 -24
23 -4 1 31 -24 40 -52 50 -90 35 -24 -10 -91 -24 -153 -31 -15 -2 -39 -14 -53
-27 -14 -13 -25 -19 -25 -13 0 6 7 16 15 23 8 7 15 19 15 26 0 8 5 14 10 14 6
0 10 7 10 16 0 10 6 14 18 10 50 -15 91 -16 132 -3 54 16 99 12 117 -11 7 -9
13 -15 13 -12 10 46 8 54 -24 86 -30 30 -31 34 -14 34 11 0 40 -12 64 -27z
m2242 5 c-4 -29 -38 -38 -38 -10 0 22 8 32 27 32 9 0 13 -8 11 -22z m-1252
-19 c10 -17 -13 -36 -27 -22 -12 12 -4 33 11 33 5 0 12 -5 16 -11z m2359 -9
c-3 -5 -12 -10 -18 -10 -7 0 -6 4 3 10 19 12 23 12 15 0z m-2975 -15 c13 -16
7 -45 -9 -45 -17 0 -40 30 -35 45 8 19 28 19 44 0z m1940 0 c0 -8 -7 -15 -15
-15 -16 0 -20 12 -8 23 11 12 23 8 23 -8z m200 -14 c0 -6 -4 -13 -10 -16 -5
-3 -10 1 -10 9 0 9 5 16 10 16 6 0 10 -4 10 -9z m965 -21 c-3 -5 -1 -10 4 -10
6 0 11 -4 11 -10 0 -10 -47 -26 -67 -22 -7 2 -13 -2 -13 -8 0 -5 7 -10 15 -10
8 0 15 -4 15 -10 0 -5 -8 -10 -19 -10 -10 0 -24 -6 -30 -14 -10 -11 -8 -16 9
-21 11 -3 18 -11 15 -16 -4 -5 9 -9 27 -9 l33 0 -25 -13 c-15 -8 -33 -11 -47
-6 -16 6 -28 2 -46 -15 -28 -26 -65 -33 -45 -9 10 12 6 14 -23 11 -22 -2 -34
-8 -34 -18 -1 -25 -14 -38 -34 -33 -13 3 -23 -2 -30 -16 -8 -15 -8 -21 -1 -21
7 0 6 -5 -2 -14 -9 -10 -15 -11 -21 -2 -10 15 -37 -21 -37 -51 0 -25 41 -49
68 -38 12 4 12 8 1 22 -13 15 -12 15 8 3 11 -8 19 -19 16 -26 -7 -18 18 -29
29 -13 8 12 10 12 15 0 3 -8 17 -26 30 -39 23 -23 23 -23 51 -4 34 24 96 45
119 40 13 -3 4 -11 -28 -26 -81 -37 -86 -63 -20 -100 21 -12 41 -22 45 -22 11
0 6 28 -6 33 -10 4 -10 6 -1 6 7 1 20 -10 29 -25 20 -30 63 -54 99 -54 16 0
28 -7 31 -17 3 -10 10 -26 15 -35 6 -11 6 -18 0 -18 -5 0 -13 9 -16 21 -11 35
-87 55 -78 20 13 -50 103 -115 103 -75 0 14 6 12 30 -11 16 -16 42 -46 56 -67
l27 -38 -18 -43 c-10 -23 -30 -58 -45 -77 -35 -47 -57 -100 -41 -100 14 0 51
32 51 43 0 7 9 13 19 13 17 0 18 -3 6 -26 -7 -14 -33 -36 -56 -50 -108 -60
-197 -152 -199 -203 0 -18 27 -78 40 -87 4 -3 23 -27 43 -53 29 -37 37 -57 36
-85 -2 -34 -2 -35 -6 -7 -3 17 -8 34 -13 39 -11 11 -17 -19 -23 -108 -4 -61
-8 -72 -31 -89 -14 -10 -26 -25 -26 -33 0 -8 -12 -19 -27 -25 -61 -21 -92 -44
-113 -81 -12 -21 -18 -42 -15 -48 11 -17 -5 -32 -21 -19 -7 6 -11 15 -8 20 3
5 1 9 -4 9 -5 0 -8 32 -7 70 3 77 15 99 64 120 17 7 32 24 40 46 11 32 11 37
-5 49 -17 12 -17 16 -4 39 8 17 16 22 21 15 4 -8 9 -8 13 -1 7 12 -36 56 -76
78 -23 12 -27 21 -27 52 1 53 -3 72 -13 66 -4 -3 -8 -1 -8 4 0 5 -11 25 -24
44 l-24 35 27 42 c14 22 33 43 41 46 8 3 26 25 39 51 14 25 38 52 54 60 52 28
106 43 112 33 4 -5 -3 -9 -14 -9 -11 0 -23 -4 -26 -10 -9 -14 20 -12 58 4 45
19 90 69 90 101 0 14 2 23 5 20 3 -3 12 9 19 27 9 21 10 35 3 42 -5 5 -10 18
-10 29 0 11 -13 23 -37 34 -21 8 -45 22 -55 30 -19 17 -38 -1 -20 -19 6 -6 8
-24 5 -39 -6 -33 10 -59 39 -59 11 0 16 -5 13 -10 -4 -6 -16 -8 -27 -4 -19 6
-20 3 -15 -28 3 -19 1 -41 -4 -49 -6 -10 -9 -7 -9 14 0 15 -5 27 -11 27 -7 0
-9 9 -5 23 5 23 -11 77 -52 167 -11 25 -40 64 -65 88 -42 40 -47 42 -106 42
-46 0 -63 -4 -68 -15 -5 -14 -8 -14 -24 1 -10 9 -16 20 -14 24 3 4 -2 13 -10
20 -10 9 -15 9 -15 1 0 -6 -4 -11 -10 -11 -5 0 -10 7 -10 16 0 20 -88 129
-104 129 -6 0 -10 -10 -9 -22 3 -28 -5 -28 -34 -4 -16 14 -23 30 -23 55 0 43
38 122 71 151 l24 20 -16 -20 c-23 -28 -59 -101 -59 -120 0 -32 20 -14 69 63
26 42 47 60 93 83 67 34 170 110 193 142 12 18 17 19 24 8 8 -13 38 -7 99 18
2 0 0 -3 -3 -9z m-1255 -20 c0 -13 -7 -20 -20 -20 -13 0 -20 7 -20 20 0 13 7
20 20 20 13 0 20 -7 20 -20z m560 10 c0 -5 -4 -10 -10 -10 -5 0 -10 5 -10 10
0 6 5 10 10 10 6 0 10 -4 10 -10z m-395 -10 c-3 -5 -10 -10 -16 -10 -5 0 -9 5
-9 10 0 6 7 10 16 10 8 0 12 -4 9 -10z m255 -20 c0 -5 -4 -10 -10 -10 -5 0
-10 5 -10 10 0 6 5 10 10 10 6 0 10 -4 10 -10z m438 -7 c-5 -25 -28 -28 -28
-4 0 12 6 21 16 21 9 0 14 -7 12 -17z m-3288 -19 c0 -2 -7 -4 -15 -4 -8 0 -15
4 -15 10 0 5 7 7 15 4 8 -4 15 -8 15 -10z m3055 -20 c0 -20 -7 -32 -23 -40
-29 -14 -63 -69 -56 -88 3 -8 -8 -28 -25 -45 -17 -18 -31 -36 -31 -41 0 -6 -7
-10 -16 -10 -15 0 -15 2 0 25 9 13 16 33 16 44 0 11 10 28 23 38 31 25 57 68
57 94 0 26 28 61 44 56 6 -2 11 -17 11 -33z m-2433 -16 c-16 -16 -37 4 -28 28
6 16 8 16 23 1 13 -13 15 -19 5 -29z m186 8 c2 -10 -1 -23 -7 -29 -15 -15 -46
16 -37 38 8 21 40 15 44 -9z m1750 7 c-5 -25 -28 -28 -28 -4 0 12 6 21 16 21
9 0 14 -7 12 -17z m92 -9 c0 -8 -5 -12 -10 -9 -6 4 -8 11 -5 16 9 14 15 11 15
-7z m140 -14 c0 -5 -4 -10 -10 -10 -5 0 -10 5 -10 10 0 6 5 10 10 10 6 0 10
-4 10 -10z m-1732 -23 c4 -20 -25 -34 -39 -20 -14 14 1 45 20 41 9 -2 17 -11
19 -21z m-318 -13 c0 -16 -26 -19 -35 -4 -3 6 -4 14 0 20 8 13 35 1 35 -16z
m2193 11 c1 -5 -6 -11 -15 -13 -11 -2 -18 3 -18 13 0 17 30 18 33 0z m-2763
-37 c15 -21 17 -28 6 -19 -16 13 -41 51 -33 51 2 0 14 -15 27 -32z m2704 -6
c2 -4 1 -14 -4 -22 -7 -11 -12 -12 -21 -3 -6 6 -8 16 -5 22 8 13 23 14 30 3z
m-2099 -12 c3 -5 2 -10 -4 -10 -5 0 -13 5 -16 10 -3 6 -2 10 4 10 5 0 13 -4
16 -10z m1013 -13 c13 -14 11 -14 -28 -1 -26 9 -61 13 -84 10 -33 -4 -36 -3
-16 4 35 13 109 5 128 -13z m-1218 3 c0 -5 -4 -10 -10 -10 -5 0 -10 5 -10 10
0 6 5 10 10 10 6 0 10 -4 10 -10z m495 0 c3 -5 1 -10 -4 -10 -6 0 -11 5 -11
10 0 6 2 10 4 10 3 0 8 -4 11 -10z m2683 -1 c39 -1 43 -2 22 -9 -14 -4 -44 -8
-67 -9 -34 -1 -41 2 -36 15 3 8 12 13 20 10 8 -3 36 -6 61 -7z m-2158 -6 c-19
-3 -50 -16 -67 -29 -40 -30 -43 -23 -7 11 21 19 37 25 68 23 40 -1 41 -1 6 -5z
m497 -9 c31 -16 56 -48 27 -37 -7 3 -14 9 -14 13 0 29 -234 40 -262 12 -15
-15 -32 -16 -23 -1 13 20 50 27 145 27 65 1 105 -4 127 -14z m292 -7 c9 -7 36
-19 61 -26 25 -7 53 -20 62 -28 14 -12 23 -13 51 -4 22 8 43 8 58 3 13 -5 49
-13 79 -16 30 -4 78 -14 105 -21 28 -8 92 -21 143 -30 51 -9 111 -23 134 -31
22 -8 54 -14 69 -14 47 0 96 -53 114 -124 8 -33 13 -62 10 -64 -2 -2 -7 9 -10
24 -3 16 -16 49 -28 74 -32 65 -60 76 -347 136 -188 40 -232 47 -305 48 -49 1
-77 6 -95 19 -13 9 -32 17 -41 17 -10 0 -39 11 -66 25 -42 22 -53 24 -85 15
-21 -6 -59 -27 -85 -47 l-48 -36 30 33 c59 64 148 85 194 47z m-1749 -17 c0
-11 -4 -20 -9 -20 -13 0 -32 26 -24 33 13 14 33 6 33 -13z m130 4 c0 -8 -4
-12 -10 -9 -5 3 -10 10 -10 16 0 5 5 9 10 9 6 0 10 -7 10 -16z m673 -14 l22
-22 -28 17 c-20 13 -53 19 -111 21 -73 2 -89 -1 -140 -26 -43 -20 -53 -23 -39
-9 33 33 92 47 186 45 77 -2 91 -6 110 -26z m1400 13 c-11 -29 -41 -56 -53
-48 -7 5 0 17 21 36 38 34 41 35 32 12z m674 -4 c-9 -6 -17 -18 -17 -27 -1
-22 -30 -62 -30 -41 0 8 5 20 12 27 7 7 8 12 3 12 -5 0 2 11 15 25 13 14 26
22 29 19 3 -3 -2 -10 -12 -15z m-1762 -25 c21 -14 24 -22 20 -53 -3 -20 -7
-117 -9 -216 -2 -154 -5 -186 -22 -219 -38 -77 -99 -122 -216 -160 -75 -25
-146 -19 -210 15 -10 5 -25 9 -33 9 -8 0 -20 9 -27 20 -7 11 -18 20 -25 20 -6
0 -15 10 -19 23 -4 12 -12 25 -17 29 -10 6 -13 114 -9 338 1 41 1 89 -1 105
-2 24 2 31 21 33 12 2 22 7 22 12 0 14 32 21 46 9 11 -9 18 -8 29 1 12 10 19
10 27 2 8 -8 17 -8 30 -1 35 19 51 4 43 -42 -7 -43 -14 -142 -19 -274 -4 -94
10 -130 52 -140 40 -8 76 8 103 47 23 31 24 40 25 224 2 191 5 216 27 213 7
-1 20 1 30 6 10 4 23 2 30 -4 8 -6 17 -7 23 -2 5 5 18 11 29 14 11 3 21 5 23
6 1 0 14 -6 27 -15z m-1055 -4 c0 -5 -4 -10 -10 -10 -5 0 -10 5 -10 10 0 6 5
10 10 10 6 0 10 -4 10 -10z m76 -1 c8 -14 -11 -33 -25 -25 -11 7 -4 36 9 36 5
0 12 -5 16 -11z m304 -4 c41 -21 38 -27 -5 -9 -44 18 -122 11 -230 -23 -44
-14 -116 -35 -160 -48 -149 -42 -319 -106 -342 -127 -12 -11 -29 -39 -37 -62
-10 -30 -15 -35 -15 -18 -1 28 20 71 48 96 23 21 190 81 331 120 47 13 128 37
180 54 107 34 187 39 230 17z m990 -15 c5 -10 6 -20 3 -24 -4 -3 -8 -48 -10
-99 l-4 -92 47 45 c26 25 66 64 90 88 24 23 47 42 52 42 5 0 17 11 25 24 24
36 55 39 83 9 15 -17 29 -23 42 -19 11 4 24 0 32 -9 7 -8 16 -13 20 -10 12 7
35 -25 24 -34 -5 -5 -52 -44 -104 -88 -52 -43 -107 -90 -122 -104 l-27 -25 40
-43 c21 -24 39 -46 39 -49 0 -3 9 -14 21 -26 55 -56 118 -132 119 -143 0 -7 9
-17 20 -23 11 -6 20 -17 20 -24 0 -7 11 -23 25 -36 42 -39 33 -53 -27 -44 -29
4 -63 8 -75 10 -12 1 -27 5 -32 9 -17 10 -33 -45 -27 -87 3 -20 2 -39 -3 -42
-15 -10 -32 21 -26 47 4 16 1 37 -8 54 -9 15 -18 35 -22 43 -10 26 -32 60 -48
78 -24 25 -107 131 -107 136 0 3 -16 22 -35 43 l-35 38 5 -118 c2 -64 6 -121
9 -126 10 -15 -25 -44 -37 -32 -6 6 -14 11 -18 11 -12 0 -17 -41 -9 -71 10
-34 4 -59 -15 -59 -19 0 -25 25 -15 60 14 49 -2 78 -47 85 -87 14 -78 -16 -78
262 0 136 -4 268 -8 293 -7 44 -7 46 22 57 17 6 46 8 69 3 25 -4 48 -3 62 5
28 15 57 9 70 -15z m697 24 c-3 -3 -12 -4 -19 -1 -8 3 -5 6 6 6 11 1 17 -2 13
-5z m223 -35 c-6 -10 -15 -19 -20 -19 -13 0 -13 6 2 29 15 25 31 16 18 -10z
m160 21 c0 -5 -5 -10 -11 -10 -5 0 -7 5 -4 10 3 6 8 10 11 10 2 0 4 -4 4 -10z
m-3216 -14 c30 -10 34 -14 18 -18 -10 -3 -27 -1 -36 4 -10 5 -29 7 -43 3 -23
-5 -25 -4 -14 9 16 19 25 20 75 2z m326 4 c0 -5 -2 -10 -4 -10 -3 0 -8 5 -11
10 -3 6 -1 10 4 10 6 0 11 -4 11 -10z m2844 1 c7 -10 -18 -34 -27 -25 -7 8 3
34 13 34 5 0 11 -4 14 -9z m-3291 -38 c-7 -2 -19 -2 -25 0 -7 3 -2 5 12 5 14
0 19 -2 13 -5z m797 -3 c0 -5 -4 -10 -10 -10 -5 0 -10 5 -10 10 0 6 5 10 10
10 6 0 10 -4 10 -10z m-320 -16 c0 -8 -4 -12 -10 -9 -5 3 -10 10 -10 16 0 5 5
9 10 9 6 0 10 -7 10 -16z m2790 12 c0 -2 -7 -7 -16 -10 -8 -3 -12 -2 -9 4 6
10 25 14 25 6z m-3107 -43 c-3 -7 -9 -13 -14 -13 -11 0 -12 34 -2 43 9 10 22
-13 16 -30z m1074 20 c3 -7 11 -13 19 -13 41 0 81 -148 52 -192 -8 -13 -18
-35 -21 -50 -4 -15 -22 -43 -41 -63 -19 -20 -37 -42 -40 -50 -3 -8 -13 -15
-23 -15 -48 -1 -109 -121 -92 -183 8 -29 -11 -64 -30 -53 -7 5 -9 21 -5 45 4
23 0 51 -9 74 -16 38 -19 39 -74 16 -76 -30 -73 -26 -73 -106 0 -68 -2 -74
-24 -82 -13 -5 -26 -19 -29 -30 -3 -12 -12 -21 -20 -21 -22 0 -38 -57 -31
-112 5 -39 4 -49 -10 -54 -25 -10 -30 1 -30 68 -1 72 -21 95 -55 63 -12 -10
-24 -15 -29 -11 -6 6 -15 211 -11 266 7 124 5 193 -7 205 -8 7 -14 20 -14 27
-1 9 -5 7 -14 -4 -12 -16 -14 -16 -24 5 -6 12 -16 39 -22 60 -14 45 0 72 35
63 12 -3 30 1 41 9 10 8 28 15 39 15 11 0 29 7 39 15 11 8 34 15 51 15 17 0
40 7 51 15 10 8 30 15 44 15 14 0 45 9 69 20 24 11 53 20 65 20 11 1 37 9 56
18 42 21 161 24 167 5z m1623 -7 c19 -3 55 -10 80 -16 25 -6 74 -16 110 -21
36 -6 79 -17 97 -26 18 -8 36 -12 41 -9 4 2 26 -1 48 -9 21 -8 55 -14 75 -15
20 0 41 -6 46 -12 16 -20 24 -76 12 -84 -6 -3 -9 -15 -6 -25 9 -32 -41 -66
-58 -40 -3 6 -13 9 -23 9 -9 0 -73 16 -142 36 -169 49 -168 49 -162 -16 2 -29
7 -56 11 -59 3 -3 31 -11 61 -18 72 -17 122 -33 138 -45 7 -5 26 -9 42 -8 34
1 49 -14 52 -54 4 -63 -1 -82 -24 -86 -15 -2 -24 -11 -26 -25 -4 -29 -32 -30
-32 -2 0 39 -28 56 -162 94 l-47 13 2 -55 2 -56 75 -23 c41 -13 89 -29 105
-35 31 -11 87 -26 140 -36 17 -3 39 -12 51 -19 11 -8 23 -12 26 -9 2 3 12 -3
22 -13 12 -14 14 -25 8 -43 -6 -15 -5 -33 1 -47 18 -39 -4 -49 -63 -28 -28 10
-58 15 -66 12 -9 -4 -26 0 -38 7 -12 8 -41 19 -66 25 -25 6 -63 16 -85 22 -22
6 -58 16 -80 21 -22 6 -44 14 -50 20 -5 5 -24 9 -41 9 -18 0 -36 5 -39 10 -3
6 -17 10 -30 10 -13 0 -27 5 -30 10 -4 6 -12 10 -18 9 -29 -3 -36 3 -41 39 -5
33 -13 168 -20 332 -1 30 -5 62 -9 70 -3 8 -6 29 -6 45 0 17 -2 55 -4 85 -3
30 -2 59 0 63 3 5 24 6 47 3 22 -4 57 -8 76 -10z m1105 -15 c-3 -6 -16 -11
-28 -11 -21 1 -21 1 3 15 27 14 36 13 25 -4z m-3445 -6 c10 -12 10 -15 -4 -15
-9 0 -16 7 -16 15 0 8 2 15 4 15 2 0 9 -7 16 -15z m-92 -128 c2 -10 -3 -17
-12 -17 -18 0 -29 16 -21 31 9 14 29 6 33 -14z m3113 -90 c-13 -13 -26 -3 -16
12 3 6 11 8 17 5 6 -4 6 -10 -1 -17z m-3054 -9 c-3 -8 -6 -5 -6 6 -1 11 2 17
5 13 3 -3 4 -12 1 -19z m1189 -36 c-12 -12 -18 8 -10 35 l8 28 4 -28 c2 -16 1
-31 -2 -35z m1781 36 c-3 -8 -6 -5 -6 6 -1 11 2 17 5 13 3 -3 4 -12 1 -19z
m243 -40 c0 -31 -25 -60 -49 -56 -26 5 -21 61 7 73 12 5 22 17 22 25 0 13 1
13 10 0 5 -8 10 -27 10 -42z m70 33 c0 -5 -11 -11 -25 -13 -28 -6 -35 8 -7 15
28 8 32 7 32 -2z m-3236 -83 c10 -16 16 -28 13 -28 -8 0 -57 79 -57 92 0 7 6
2 13 -12 7 -14 21 -37 31 -52z m-94 32 c0 -5 -4 -10 -9 -10 -6 0 -13 5 -16 10
-3 6 1 10 9 10 9 0 16 -4 16 -10z m2990 -10 c-6 -11 -13 -20 -16 -20 -2 0 0 9
6 20 6 11 13 20 16 20 2 0 0 -9 -6 -20z m-3085 -16 c25 -27 41 -76 30 -94 -10
-16 -50 -11 -77 10 -29 23 -53 73 -44 95 9 25 64 19 91 -11z m-445 12 c0 -3
-4 -8 -10 -11 -5 -3 -10 -1 -10 4 0 6 5 11 10 11 6 0 10 -2 10 -4z m3618 -8
c-6 -18 -28 -21 -28 -4 0 9 7 16 16 16 9 0 14 -5 12 -12z m-3673 -18 c-3 -5
-11 -10 -16 -10 -6 0 -7 5 -4 10 3 6 11 10 16 10 6 0 7 -4 4 -10z m3555 -10
c0 -5 -5 -10 -11 -10 -5 0 -7 5 -4 10 3 6 8 10 11 10 2 0 4 -4 4 -10z m80 -20
c0 -5 -4 -10 -10 -10 -5 0 -10 5 -10 10 0 6 5 10 10 10 6 0 10 -4 10 -10z
m-101 -70 c0 -18 -4 -12 -15 20 -17 56 -17 62 1 30 8 -14 14 -36 14 -50z
m-3480 13 c2 -2 -3 -3 -11 -3 -9 0 -19 7 -22 16 -6 15 -4 15 11 3 10 -7 20
-15 22 -16z m614 6 c26 -30 40 -70 23 -63 -8 3 -13 13 -12 22 0 9 -9 21 -21
27 -13 5 -23 15 -23 22 0 19 13 16 33 -8z m3117 -1 c0 -7 -16 -26 -36 -43 -19
-16 -36 -39 -38 -50 -2 -11 -10 -21 -19 -23 -26 -5 -20 16 12 46 15 15 31 39
35 55 4 18 13 27 26 27 11 0 20 -6 20 -12z m-172 -9 c-2 -6 -6 -9 -9 -7 -3 2
-13 -3 -22 -11 -20 -16 -23 -6 -4 14 14 17 40 20 35 4z m62 -19 c0 -5 -4 -10
-10 -10 -5 0 -10 5 -10 10 0 6 5 10 10 10 6 0 10 -4 10 -10z m364 -25 c-6 -16
-24 -21 -24 -7 0 11 11 22 21 22 5 0 6 -7 3 -15z m-3307 -47 c-2 -13 -4 -5 -4
17 -1 22 1 32 4 23 2 -10 2 -28 0 -40z m3260 8 c-8 -19 -37 -21 -37 -3 0 7 5
18 12 25 15 15 33 -1 25 -22z m-3992 -15 l20 -24 -22 12 c-13 6 -23 19 -23 28
0 9 1 14 3 12 1 -2 11 -15 22 -28z m565 9 c0 -5 -6 -10 -14 -10 -8 0 -18 5
-21 10 -3 6 3 10 14 10 12 0 21 -4 21 -10z m3013 -5 c4 -8 2 -17 -3 -20 -6 -4
-10 3 -10 14 0 25 6 27 13 6z m-2878 -5 c3 -5 1 -10 -4 -10 -6 0 -11 5 -11 10
0 6 2 10 4 10 3 0 8 -4 11 -10z m2915 0 c0 -5 -5 -10 -11 -10 -5 0 -7 5 -4 10
3 6 8 10 11 10 2 0 4 -4 4 -10z m-2980 -15 c10 -12 10 -19 2 -27 -15 -15 -48
14 -38 31 10 15 21 14 36 -4z m-576 -34 c-2 -3 -12 3 -22 13 -16 17 -16 18 5
5 12 -7 20 -15 17 -18z m3598 -3 c-15 -15 -26 -4 -18 18 5 13 9 15 18 6 9 -9
9 -15 0 -24z m-59 -10 c38 -19 68 -66 67 -105 -1 -10 -7 -1 -15 21 -17 47 -17
48 -85 86 -58 33 -32 31 33 -2z m-1428 11 c4 -5 19 -7 34 -4 35 7 47 -6 56
-65 4 -25 10 -49 14 -55 3 -5 11 -32 18 -60 6 -27 20 -83 30 -123 l18 -72 18
47 c11 27 23 57 27 68 5 11 14 39 20 62 6 23 15 45 20 48 6 3 10 16 10 29 0
32 33 61 48 43 12 -14 50 -15 71 -3 16 10 51 -21 51 -46 0 -19 23 -102 40
-143 4 -11 17 -51 28 -90 11 -38 22 -63 25 -55 2 8 12 47 22 85 10 39 25 93
33 120 8 28 17 64 19 80 7 35 22 48 40 33 7 -5 24 -8 37 -4 14 3 28 0 35 -8 6
-7 29 -16 50 -20 22 -3 41 -11 43 -18 2 -6 -4 -37 -13 -67 -10 -31 -26 -92
-35 -136 -8 -44 -20 -90 -24 -101 -5 -12 -12 -43 -15 -70 -4 -27 -11 -53 -15
-59 -4 -5 -10 -26 -14 -46 -4 -21 -14 -51 -22 -69 -14 -27 -20 -30 -44 -25
-23 5 -32 2 -46 -20 -13 -20 -15 -38 -10 -94 6 -56 4 -70 -8 -74 -26 -10 -36
17 -30 81 8 75 -8 124 -39 120 -17 -3 -25 11 -52 87 -37 106 -42 119 -61 165
-7 19 -18 48 -24 64 l-11 29 -30 -62 c-24 -53 -32 -61 -44 -51 -8 6 -17 20
-20 31 -4 11 -10 17 -15 14 -5 -3 -37 8 -72 24 -34 15 -71 31 -81 35 -10 3
-15 10 -12 16 8 12 -7 13 -20 1 -6 -4 -25 -11 -43 -15 -26 -4 -34 -2 -38 12
-3 9 -10 25 -15 34 -5 10 -9 28 -9 41 0 13 -7 32 -15 43 -8 10 -15 27 -15 36
0 10 -9 33 -20 53 -11 20 -20 43 -20 51 0 9 -8 29 -17 45 -23 39 -8 53 57 52
28 0 53 3 56 8 7 12 21 11 29 -2z m1715 1 c0 -5 -4 -10 -10 -10 -5 0 -10 5
-10 10 0 6 5 10 10 10 6 0 10 -4 10 -10z m-2455 -20 c3 -6 -1 -7 -9 -4 -18 7
-21 14 -7 14 6 0 13 -4 16 -10z m-815 -10 c0 -5 -4 -10 -10 -10 -5 0 -10 5
-10 10 0 6 5 10 10 10 6 0 10 -4 10 -10z m1212 -4 c48 -2 124 -45 136 -76 3
-8 16 -23 29 -33 13 -10 23 -27 23 -38 0 -11 7 -34 16 -51 9 -17 13 -41 10
-53 -3 -13 -2 -34 3 -47 6 -15 5 -31 -1 -42 -9 -15 -12 -16 -26 -3 -22 19 -62
31 -62 19 0 -6 -17 -18 -37 -28 -21 -11 -69 -44 -108 -75 -38 -30 -92 -68
-120 -84 -27 -16 -52 -32 -55 -36 -3 -4 -21 -9 -40 -11 -19 -1 -38 -7 -41 -12
-4 -4 -16 -3 -27 3 -14 7 -23 8 -27 1 -3 -5 -1 -10 5 -10 6 0 8 -4 5 -10 -3
-5 6 -12 21 -16 15 -4 29 -2 33 4 3 5 6 -10 6 -34 0 -24 -3 -44 -7 -44 -5 0
-8 -6 -8 -14 0 -27 -19 -27 -32 0 -7 15 -30 36 -50 47 -21 10 -38 25 -38 32 0
7 -12 20 -26 30 -16 10 -23 22 -20 31 3 9 0 27 -7 42 -8 16 -13 56 -12 97 3
117 19 172 80 273 21 34 70 82 84 82 8 0 23 8 33 17 10 9 26 17 36 18 9 1 27
7 40 14 12 7 30 10 40 7 9 -3 24 -1 32 4 8 6 26 8 40 5 14 -4 46 -7 72 -9z
m1992 6 c5 -8 -37 -52 -48 -52 -3 0 2 14 10 30 16 30 28 37 38 22z m-3154 -23
c0 -6 -4 -7 -10 -4 -5 3 -10 11 -10 16 0 6 5 7 10 4 6 -3 10 -11 10 -16z m721
-50 c4 -16 1 -33 -7 -44 -8 -10 -14 -28 -14 -39 0 -12 -7 -34 -15 -50 -8 -15
-15 -34 -15 -42 0 -7 -6 -11 -14 -8 -22 8 -37 -29 -40 -102 -3 -73 -16 -95
-42 -73 -12 10 -15 23 -11 53 11 82 -11 120 -56 99 -12 -6 -33 -15 -47 -20
l-25 -10 -1 -269 c0 -148 -4 -279 -8 -292 -4 -13 -18 -27 -31 -32 -12 -5 -32
-29 -45 -55 -25 -53 -30 -123 -16 -246 7 -65 6 -77 -9 -93 -40 -40 -70 15 -54
100 13 70 5 182 -15 202 -11 12 -17 12 -35 0 -16 -10 -23 -10 -29 -1 -4 6 -7
143 -6 305 1 161 -1 296 -2 299 -4 7 -69 -13 -80 -24 -4 -4 -15 -7 -25 -7 -9
0 -28 -17 -41 -37 -20 -33 -23 -51 -23 -138 0 -68 -5 -111 -15 -132 -8 -18
-17 -33 -20 -33 -3 0 -12 15 -21 33 -13 27 -14 43 -6 99 14 91 -3 152 -39 145
-32 -6 -47 14 -35 46 7 17 6 30 -4 44 -8 11 -10 25 -5 32 4 7 5 22 3 32 -8 28
15 49 51 49 17 0 40 7 50 15 11 8 28 15 38 15 11 0 36 9 56 19 20 11 57 24 82
30 25 7 53 15 64 18 16 5 18 2 11 -36 -5 -33 -3 -46 11 -62 42 -47 90 -1 79
75 -7 41 -5 46 16 55 57 22 172 58 231 70 21 5 44 13 52 20 7 6 21 9 29 5 9
-3 24 -1 34 5 25 14 36 9 44 -20z m-761 0 c0 -24 -23 -21 -28 4 -2 10 3 17 12
17 10 0 16 -9 16 -21z m3646 -33 c-8 -13 -27 -27 -42 -30 -41 -11 -41 1 0 21
23 11 39 26 43 43 6 19 8 21 11 7 2 -10 -3 -28 -12 -41z m-508 32 c-6 -18 -28
-21 -28 -4 0 9 7 16 16 16 9 0 14 -5 12 -12z m-3103 -18 c3 -5 1 -10 -4 -10
-6 0 -11 5 -11 10 0 6 2 10 4 10 3 0 8 -4 11 -10z m3012 -52 c-3 -7 -5 -2 -5
12 0 14 2 19 5 13 2 -7 2 -19 0 -25z m-612 11 c4 -6 14 -8 22 -5 16 6 61 -5
121 -30 18 -8 37 -25 42 -39 5 -14 16 -28 24 -31 8 -3 20 -21 26 -40 6 -19 16
-34 21 -34 5 0 18 -20 29 -45 11 -25 24 -45 29 -45 6 0 22 -24 35 -52 14 -29
44 -82 66 -118 32 -52 39 -59 35 -35 -3 17 -7 71 -11 120 -3 50 -7 104 -9 120
-18 144 -12 165 41 130 17 -11 37 -15 54 -11 19 3 33 0 41 -10 8 -9 21 -13 35
-10 13 4 26 2 29 -4 3 -5 17 -10 30 -10 14 0 26 -7 28 -17 14 -50 16 -72 9
-77 -8 -5 -13 -162 -11 -396 1 -178 1 -178 -3 -250 -2 -53 -6 -65 -19 -62 -32
5 -38 -70 -14 -172 11 -46 12 -72 5 -90 -12 -33 -37 -43 -56 -24 -17 17 -19
44 -10 163 8 107 -8 191 -37 189 -9 -1 -17 2 -17 7 0 5 -4 9 -10 9 -5 0 -10
-11 -10 -24 0 -14 -5 -28 -10 -31 -17 -11 -40 15 -40 44 0 33 -23 98 -49 142
-11 19 -28 47 -36 62 -9 15 -25 37 -36 48 -10 10 -19 24 -19 31 0 6 -6 19 -14
27 -7 9 -24 36 -37 61 -13 24 -39 67 -57 95 l-33 50 7 -140 c4 -77 7 -153 8
-170 1 -27 -2 -30 -29 -30 l-30 0 0 -87 c0 -94 -11 -122 -40 -98 -13 11 -15
26 -9 90 6 76 6 77 -25 109 -17 18 -36 29 -42 26 -17 -11 -39 16 -38 49 1 17
-2 119 -6 226 -4 107 -7 206 -7 220 1 14 -3 55 -9 92 -6 37 -8 72 -4 78 8 13
32 13 40 -1z m745 -4 c0 -15 -40 -46 -50 -40 -8 5 -6 13 7 25 17 18 43 26 43
15z m-3070 -9 c0 -9 -148 -74 -182 -80 -77 -14 -115 -106 -99 -236 5 -39 15
-79 23 -89 7 -9 4 -7 -8 5 -15 16 -23 40 -28 93 -12 132 27 220 107 242 23 6
60 19 82 29 74 34 105 45 105 36z m-130 -10 c0 -2 -7 -7 -16 -10 -8 -3 -12 -2
-9 4 6 10 25 14 25 6z m3160 -61 c14 -7 33 -21 42 -32 22 -24 48 -125 47 -178
-1 -32 -3 -28 -10 23 -16 123 -47 170 -129 192 -22 6 -40 13 -40 16 0 8 61 -6
90 -21z m-3746 -51 c24 -23 20 -44 -8 -44 -29 0 -47 37 -25 51 18 11 15 12 33
-7z m4214 -56 c4 -18 -36 -60 -53 -55 -18 6 -17 38 1 58 20 23 47 21 52 -3z
m-2000 -83 c101 -24 169 -62 243 -135 49 -47 76 -85 94 -126 14 -33 37 -80 50
-107 27 -51 31 -87 14 -115 -8 -12 -9 -36 -5 -66 6 -35 14 -52 37 -68 36 -27
40 -75 7 -104 l-22 -19 17 25 c17 24 23 60 11 60 -3 0 -18 -9 -34 -20 -15 -11
-30 -17 -34 -13 -3 3 -6 1 -6 -6 0 -8 -11 -10 -37 -6 -68 11 -85 16 -79 22 3
4 -8 13 -25 20 -17 7 -28 17 -24 22 3 6 -3 15 -14 21 -12 6 -26 20 -32 33 -9
16 0 11 29 -15 35 -31 49 -38 85 -38 23 0 54 8 67 17 l25 17 -19 -22 c-14 -16
-32 -22 -65 -24 l-46 -1 40 -4 c22 -3 57 1 77 8 33 10 36 15 35 43 -2 17 -5
36 -9 42 -4 5 -2 28 3 50 6 21 12 50 15 64 4 22 3 23 -5 5 -6 -13 -10 -15 -10
-6 -1 8 -11 26 -23 40 l-23 26 23 -19 c25 -22 30 -16 6 8 -19 20 -80 20 -114
1 -36 -21 -46 -18 -19 5 l24 20 -32 -17 c-17 -10 -30 -21 -27 -24 2 -4 -6 -5
-18 -2 -19 4 -21 3 -8 -7 13 -10 12 -11 -5 -5 -11 4 -26 10 -34 13 -10 4 -12
1 -6 -9 5 -9 2 -9 -10 2 -20 20 -11 45 38 96 25 26 30 41 33 88 1 32 6 60 9
64 4 3 6 -13 3 -37 -4 -46 9 -51 30 -11 l12 24 -3 -26 c-1 -15 -8 -34 -16 -42
-10 -13 -9 -19 11 -39 12 -12 31 -21 40 -20 10 2 21 -4 24 -12 3 -9 15 -16 26
-16 13 0 17 4 11 13 -8 12 -11 26 -16 63 -4 27 -59 104 -75 104 -6 0 -11 5
-10 11 4 15 -79 79 -138 108 -77 39 -187 56 -276 43 -158 -23 -311 -113 -394
-232 -55 -80 -89 -182 -81 -248 4 -31 3 -40 -3 -27 -26 60 11 195 80 293 41
59 129 131 208 171 57 29 185 59 252 60 30 0 83 -6 118 -14z m37 -39 c21 -9
35 -19 32 -23 -4 -3 8 -13 26 -22 21 -11 35 -13 40 -6 4 5 5 -2 1 -18 -5 -21
-3 -26 8 -22 9 4 19 -4 26 -20 11 -24 11 -25 -9 -14 -14 7 -25 7 -31 1 -7 -7
-2 -12 12 -17 14 -4 18 -10 12 -14 -8 -5 -7 -15 4 -36 12 -23 12 -30 2 -37
-10 -6 -10 -8 0 -8 23 0 12 -22 -18 -33 -16 -6 -30 -18 -30 -27 0 -12 -2 -12
-9 -2 -5 8 -8 -13 -7 -52 1 -35 -2 -59 -6 -53 -16 24 -7 -4 14 -47 12 -25 26
-42 31 -39 6 4 7 1 3 -6 -6 -9 -12 -9 -25 3 -35 32 -79 18 -151 -48 -36 -32
-34 -29 7 12 29 30 53 59 53 66 0 7 4 16 9 22 5 5 14 34 19 64 9 46 8 58 -5
73 -9 9 -22 17 -29 17 -7 0 -22 12 -33 28 -11 15 -21 22 -21 15 0 -6 5 -15 10
-18 6 -4 8 -11 5 -16 -4 -5 -1 -9 5 -9 16 0 60 -47 60 -65 0 -8 -6 -14 -12
-12 -7 1 -12 -4 -10 -11 2 -9 -3 -10 -16 -3 -11 6 -24 6 -35 0 -19 -11 -60 -3
-53 10 6 8 -57 41 -77 41 -7 0 6 -9 28 -19 52 -25 43 -26 -19 -2 -29 11 -43
21 -35 24 8 3 -13 6 -46 6 -33 0 -67 -4 -75 -9 -8 -5 -11 -10 -5 -10 14 0 -33
-32 -53 -34 -9 -2 -18 -9 -20 -16 -3 -8 0 -10 8 -5 9 6 9 3 1 -13 -37 -69 26
-167 120 -187 44 -10 103 12 154 57 32 28 44 35 36 20 -6 -12 -23 -29 -36 -38
-14 -9 -22 -20 -20 -25 6 -9 -46 -39 -70 -39 -8 0 -24 -9 -35 -20 -11 -11 -20
-17 -20 -13 0 4 -5 2 -12 -5 -14 -14 -64 -16 -73 -2 -3 5 -12 7 -20 3 -21 -7
-67 6 -60 17 3 5 -1 7 -9 4 -17 -7 -99 33 -91 45 2 5 -7 12 -21 15 -31 8 -74
35 -74 47 0 5 16 -3 36 -16 44 -30 59 -31 102 -5 23 14 32 27 33 47 l1 28 8
-29 c10 -33 67 -96 88 -96 7 0 11 -4 8 -9 -3 -4 6 -6 21 -3 19 4 24 2 18 -8
-6 -9 -4 -11 6 -4 8 4 27 8 44 7 16 -1 4 4 -28 11 -58 13 -117 55 -117 82 0 7
-4 14 -8 16 -5 2 -12 18 -15 36 -4 18 -3 31 2 28 5 -3 11 4 14 16 9 31 -15 43
-30 15 -7 -12 -12 -17 -13 -12 0 6 18 35 41 65 34 45 40 60 37 94 l-3 40 74
14 c67 13 77 13 110 -2 33 -16 35 -16 20 -1 -9 9 -35 19 -58 22 -22 3 -41 9
-41 14 0 16 -44 49 -64 49 -16 0 -18 -2 -7 -9 7 -5 10 -14 7 -20 -4 -6 -11 -9
-16 -6 -4 3 -6 -3 -4 -12 6 -24 -34 -51 -42 -28 -4 8 -10 15 -16 15 -5 0 -6
-6 -2 -12 4 -7 -1 -5 -11 4 -18 17 -18 18 1 39 l19 22 -32 -17 c-45 -22 -45 0
-1 40 l33 29 -25 -29 c-23 -27 -24 -28 -3 -17 12 6 30 22 40 35 11 13 37 31
58 40 43 19 43 32 -1 16 -27 -10 -28 -9 -9 5 11 9 29 14 40 11 10 -3 26 1 35
9 39 35 221 41 295 11z m-1945 -26 c0 -5 -4 -10 -10 -10 -5 0 -10 5 -10 10 0
6 5 10 10 10 6 0 10 -4 10 -10z m3930 0 c0 -5 -4 -10 -10 -10 -5 0 -10 5 -10
10 0 6 5 10 10 10 6 0 10 -4 10 -10z m-413 -22 c-3 -8 -6 -5 -6 6 -1 11 2 17
5 13 3 -3 4 -12 1 -19z m-3715 -13 c4 -21 3 -23 -14 -14 -15 8 -17 13 -7 25
15 18 16 18 21 -11z m3796 -7 c-6 -18 -28 -21 -28 -4 0 9 7 16 16 16 9 0 14
-5 12 -12z m-3551 -24 c-9 -9 -28 6 -21 18 4 6 10 6 17 -1 6 -6 8 -13 4 -17z
m3463 -384 c-5 -172 -6 -158 -6 110 0 168 2 256 5 195 3 -60 4 -198 1 -305z
m-3650 380 c0 -5 -4 -10 -10 -10 -5 0 -10 5 -10 10 0 6 5 10 10 10 6 0 10 -4
10 -10z m1097 -97 c6 -35 -9 -63 -34 -63 -25 0 -31 41 -15 104 l16 61 14 -35
c8 -19 16 -49 19 -67z m-837 67 c0 -5 -4 -10 -10 -10 -5 0 -10 5 -10 10 0 6 5
10 10 10 6 0 10 -4 10 -10z m-182 -38 c3 -20 0 -23 -20 -20 -15 2 -24 11 -26
26 -3 20 0 23 20 20 15 -2 24 -11 26 -26z m77 -12 c3 -5 -1 -10 -9 -10 -9 0
-16 5 -16 10 0 6 4 10 9 10 6 0 13 -4 16 -10z m150 0 c3 -5 1 -10 -5 -10 -6 0
-4 -7 5 -16 9 -9 14 -23 11 -31 -3 -8 -6 -21 -6 -29 0 -7 -6 -11 -14 -8 -8 3
-17 1 -21 -5 -4 -7 3 -11 17 -11 18 0 23 -6 23 -25 0 -30 -6 -31 -30 -5 -10
11 -21 17 -25 15 -4 -3 -13 2 -19 9 -10 12 -7 17 15 28 24 11 28 19 27 56 0
40 9 54 22 32z m3713 -12 c-6 -18 -28 -21 -28 -4 0 9 7 16 16 16 9 0 14 -5 12
-12z m-3753 -18 c3 -5 -1 -10 -9 -10 -9 0 -16 5 -16 10 0 6 4 10 9 10 6 0 13
-4 16 -10z m110 -142 l19 -23 -24 22 c-20 19 -24 33 -26 90 l-2 68 7 -67 c5
-43 15 -76 26 -90z m1231 106 c-3 -8 -10 -14 -16 -14 -11 0 -14 43 -3 54 10
10 26 -23 19 -40z m24 26 c0 -5 -2 -10 -4 -10 -3 0 -8 5 -11 10 -3 6 -1 10 4
10 6 0 11 -4 11 -10z m-1434 -34 c10 -8 16 -18 11 -22 -4 -4 -16 2 -27 14 -23
25 -14 29 16 8z m3764 10 c0 -3 -4 -8 -10 -11 -5 -3 -10 -1 -10 4 0 6 5 11 10
11 6 0 10 -2 10 -4z m115 -31 c0 -22 -31 -33 -48 -16 -7 7 -6 15 3 26 17 21
45 15 45 -10z m-2541 -47 c-5 -7 0 -9 14 -6 14 4 19 2 15 -7 -4 -12 -39 -13
-51 -1 -9 9 8 37 18 31 6 -4 7 -11 4 -17z m243 -14 c-3 -3 -12 -4 -19 -1 -8 3
-5 6 6 6 11 1 17 -2 13 -5z m2193 -9 c0 -8 -7 -15 -15 -15 -8 0 -15 7 -15 15
0 8 7 15 15 15 8 0 15 -7 15 -15z m-3730 -11 c0 -9 -5 -14 -12 -12 -18 6 -21
28 -4 28 9 0 16 -7 16 -16z m1005 -25 c-6 -27 -4 -29 22 -29 39 0 53 -17 53
-62 0 -22 5 -38 12 -38 6 0 9 -2 6 -6 -3 -3 -45 0 -93 7 -87 12 -87 12 -106
-12 l-19 -24 -6 24 c-6 22 -10 23 -57 17 -47 -7 -49 -6 -36 10 14 17 15 20 17
61 1 15 7 21 16 17 8 -3 17 -1 21 5 3 6 39 11 80 11 l75 0 -7 30 c-5 26 -3 29
11 24 13 -5 15 -14 11 -35z m2510 31 c3 -5 1 -10 -4 -10 -6 0 -11 5 -11 10 0
6 2 10 4 10 3 0 8 -4 11 -10z m-3281 -87 c4 -38 9 -86 12 -109 7 -49 -14 -76
-42 -53 -12 9 -14 23 -10 53 3 23 8 71 12 109 4 37 10 67 14 67 4 0 10 -30 14
-67z m64 -7 c-27 -42 -38 -45 -38 -11 0 16 11 35 28 50 36 31 42 9 10 -39z
m1509 48 c-3 -3 -12 -4 -19 -1 -8 3 -5 6 6 6 11 1 17 -2 13 -5z m1965 -26
c-15 -15 -26 -4 -18 18 5 13 9 15 18 6 9 -9 9 -15 0 -24z m-3891 9 c-1 -12
-15 -9 -19 4 -3 6 1 10 8 8 6 -3 11 -8 11 -12z m2666 -28 c21 -23 47 -45 58
-49 13 -6 -8 -9 -60 -9 -124 -2 -152 -9 -160 -40 l-7 -26 -9 24 c-7 19 -6 27
5 33 8 5 13 15 10 22 -3 8 -1 17 5 21 6 3 11 14 11 24 0 10 9 21 20 24 11 3
20 0 20 -6 0 -9 2 -9 8 -1 8 12 29 22 50 23 6 1 29 -18 49 -40z m-2557 4 c11
-14 19 -31 17 -37 -6 -19 -48 -19 -68 0 -22 20 -24 35 -7 52 19 19 35 14 58
-15z m3470 -4 c0 -5 -4 -9 -10 -9 -5 0 -10 7 -10 16 0 8 5 12 10 9 6 -3 10
-10 10 -16z m160 1 c0 -5 -4 -10 -10 -10 -5 0 -10 5 -10 10 0 6 5 10 10 10 6
0 10 -4 10 -10z m-140 -20 c0 -5 -5 -10 -11 -10 -5 0 -7 5 -4 10 3 6 8 10 11
10 2 0 4 -4 4 -10z m-2720 -18 c0 -5 -7 -17 -15 -28 -14 -18 -14 -17 -4 9 12
27 19 34 19 19z m2818 -10 c2 -7 -6 -12 -17 -12 -21 0 -27 11 -14 24 9 9 26 2
31 -12z m-3231 -69 c-2 -16 -4 -5 -4 22 0 28 2 40 4 28 2 -13 2 -35 0 -50z
m3103 57 c0 -5 -5 -10 -11 -10 -5 0 -7 5 -4 10 3 6 8 10 11 10 2 0 4 -4 4 -10z
m-1538 -17 c9 -10 27 -41 41 -69 14 -28 42 -72 63 -99 38 -51 69 -113 60 -123
-3 -3 -6 -1 -6 5 0 21 -63 103 -94 123 -44 26 -102 26 -148 -3 -20 -12 -71
-55 -112 -96 -42 -40 -76 -69 -76 -63 0 6 29 43 66 84 36 40 69 78 75 85 5 7
17 10 27 7 15 -5 15 -4 -1 6 -17 11 -17 14 -3 28 13 16 56 106 56 120 0 3 -13
-7 -30 -23 -16 -16 -30 -34 -30 -40 0 -6 -12 -22 -26 -36 l-25 -24 10 29 c15
37 90 106 117 106 11 0 28 -8 36 -17z m1044 -18 c16 -15 24 -31 20 -40 -3 -8
-1 -15 4 -15 6 0 10 -5 10 -11 0 -16 -23 4 -61 53 -36 44 -17 54 27 13z m768
9 c22 -22 20 -44 -8 -85 -44 -64 -135 -88 -151 -40 -9 28 17 83 54 114 37 30
81 35 105 11z m-3658 -5 c3 -6 2 -15 -4 -21 -7 -7 -14 -3 -21 11 -10 17 -9 21
3 21 8 0 18 -5 22 -11z m3438 2 c3 -5 -1 -14 -8 -20 -16 -13 -32 2 -21 19 8
12 22 13 29 1z m-1327 -23 c-3 -8 -6 -5 -6 6 -1 11 2 17 5 13 3 -3 4 -12 1
-19z m670 -65 c-12 -12 -12 -7 -3 34 11 46 11 46 14 14 2 -20 -2 -40 -11 -48z
m-1653 -4 c-8 -17 -9 -13 -9 21 0 34 1 38 9 21 5 -13 5 -29 0 -42z m-164 41
c0 -5 -4 -10 -10 -10 -5 0 -10 5 -10 10 0 6 5 10 10 10 6 0 10 -4 10 -10z
m-656 -45 l17 -30 -20 24 c-12 13 -21 28 -21 34 0 12 0 11 24 -28z m2026 25
c0 -5 -2 -10 -4 -10 -3 0 -8 5 -11 10 -3 6 -1 10 4 10 6 0 11 -4 11 -10z
m-2780 -10 c0 -5 -2 -10 -4 -10 -3 0 -8 5 -11 10 -3 6 -1 10 4 10 6 0 11 -4
11 -10z m4200 0 c0 -5 -5 -10 -11 -10 -5 0 -7 5 -4 10 3 6 8 10 11 10 2 0 4
-4 4 -10z m-2080 -3 c0 -2 -15 -16 -32 -33 l-33 -29 29 33 c28 30 36 37 36 29z
m-720 -35 c24 -9 21 -12 -50 -45 -41 -20 -104 -41 -140 -47 -36 -6 -82 -17
-103 -25 -20 -8 -39 -15 -41 -15 -1 0 -3 18 -4 41 -1 22 -4 44 -7 49 -6 9 63
38 120 50 48 11 190 6 225 -8z m1654 7 c36 -10 38 -13 32 -41 -3 -16 -1 -39 5
-50 10 -19 9 -20 -12 -14 -13 3 -58 9 -99 12 -70 6 -238 59 -225 72 27 27 226
41 299 21z m403 -58 c10 -6 13 -11 6 -11 -14 0 -63 57 -63 73 0 7 9 -2 19 -20
11 -17 28 -36 38 -42z m-3317 49 c0 -5 -2 -10 -4 -10 -3 0 -8 5 -11 10 -3 6
-1 10 4 10 6 0 11 -4 11 -10z m3002 -82 c-18 -18 -34 2 -26 35 10 51 18 55 27
14 6 -25 6 -42 -1 -49z m740 67 c0 -5 -5 -11 -11 -13 -6 -2 -11 4 -11 13 0 9
5 15 11 13 6 -2 11 -8 11 -13z m-2235 -20 c46 -28 114 -111 143 -178 24 -56
37 -122 21 -113 -6 4 -9 12 -6 17 9 13 -44 127 -62 133 -8 3 -12 10 -8 15 3 5
0 13 -6 17 -7 4 -9 3 -5 -4 3 -6 1 -14 -5 -17 -5 -4 -8 -13 -5 -21 3 -7 1 -16
-4 -19 -6 -4 -10 -12 -10 -18 0 -7 9 -1 20 13 15 20 21 23 31 13 11 -11 10
-15 0 -25 -11 -10 -13 -10 -7 0 12 21 -8 13 -22 -8 -7 -12 -17 -18 -22 -15
-13 8 -13 5 5 -45 8 -23 15 -52 14 -64 0 -11 -7 1 -14 27 -22 82 -67 160 -121
215 -29 28 -45 48 -35 42 10 -5 22 -6 26 -2 5 4 5 1 1 -5 -5 -9 0 -13 13 -13
13 0 21 7 22 18 1 16 2 16 6 0 5 -21 19 -24 26 -5 3 8 9 6 19 -7 10 -12 17
-15 22 -8 8 13 -47 60 -81 68 -35 9 -111 -14 -92 -28 11 -8 10 -9 -4 -4 -10 3
-28 6 -40 7 -35 0 63 38 102 38 20 1 53 -10 78 -24z m403 11 c0 -2 -8 -10 -17
-17 -16 -13 -17 -12 -4 4 13 16 21 21 21 13z m1262 -48 c32 -17 88 -58 123
-92 58 -54 65 -65 65 -99 0 -44 18 -82 55 -117 25 -24 26 -27 20 -105 -7 -88
-22 -138 -38 -128 -6 3 -7 1 -3 -6 19 -30 -94 -125 -180 -151 -33 -10 -46 -10
-65 0 -21 12 -23 12 -11 -2 11 -14 8 -16 -28 -15 -28 2 -40 7 -41 17 0 10 -2
11 -6 3 -7 -19 -23 -16 -23 5 0 10 -5 23 -11 29 -7 7 2 12 33 17 235 36 334
182 247 363 -35 74 -120 156 -205 199 -55 28 -59 33 -62 68 -6 74 14 76 130
14z m468 34 c0 -5 -7 -17 -15 -28 -14 -18 -14 -17 -4 9 12 27 19 34 19 19z
m-2346 -33 c-115 -20 -184 -89 -203 -200 -8 -51 -9 -52 -10 -14 -1 49 35 130
76 168 35 32 126 67 157 59 16 -5 12 -8 -20 -13z m630 9 c-20 -35 -46 -68 -54
-68 -16 0 3 41 28 60 29 23 36 25 26 8z m241 2 c3 -5 12 -7 21 -3 9 3 14 0 12
-8 -2 -8 4 -13 14 -13 23 2 69 -48 85 -93 19 -56 16 -63 -10 -18 -46 80 -134
108 -215 66 -51 -26 -118 -101 -148 -164 -13 -29 -24 -45 -24 -36 0 8 16 41
35 74 20 32 33 60 30 63 -2 3 8 15 23 26 15 12 26 28 24 37 -4 20 46 62 65 55
7 -3 13 -1 13 4 0 8 21 14 57 19 6 0 14 -3 18 -9z m474 -12 c14 -6 30 -10 34
-9 5 1 6 -3 2 -9 -3 -5 -2 -18 3 -27 14 -26 26 -107 15 -100 -5 3 -7 -11 -5
-31 2 -25 0 -33 -6 -24 -8 11 -57 42 -68 42 -1 0 -18 -33 -37 -72 -19 -40 -44
-84 -56 -98 -19 -21 -18 -18 4 18 79 131 93 272 32 318 -21 16 -21 16 17 9 21
-3 50 -11 65 -17z m-2719 -24 c0 -17 -22 -14 -28 4 -2 7 3 12 12 12 9 0 16 -7
16 -16z m1508 -38 c59 -54 124 -211 121 -289 0 -12 -7 7 -14 43 -7 36 -18 77
-24 93 -12 31 -32 37 -24 7 6 -23 -18 -25 -27 -3 -3 8 -10 9 -19 4 -11 -7 -12
-17 -4 -47 6 -22 12 -43 13 -49 1 -5 1 -32 0 -60 -2 -48 -2 -47 -15 30 -15 93
-25 123 -66 186 -29 46 -86 92 -125 102 -18 4 -18 5 1 6 11 0 27 -3 35 -9 9
-5 19 -5 27 2 8 6 17 8 20 4 4 -4 1 -11 -7 -16 -20 -13 -8 -12 26 0 21 8 29 8
35 -2 7 -10 11 -10 21 1 7 8 9 11 3 8 -5 -2 -19 7 -30 22 -19 26 -19 26 0 12
11 -8 35 -29 53 -45z m1316 21 c61 -35 80 -67 84 -146 3 -48 -1 -85 -13 -120
-20 -61 -84 -160 -116 -180 -13 -8 -4 8 22 38 78 89 110 223 64 261 -13 11
-15 8 -15 -19 0 -34 -2 -36 -31 -20 -19 10 -19 9 -9 -10 13 -25 -4 -66 -22
-55 -6 4 -8 3 -4 -4 3 -6 0 -14 -7 -19 -7 -4 -23 -24 -35 -44 -12 -20 -29 -42
-37 -49 -9 -7 0 11 20 40 50 74 79 176 72 254 -5 58 -5 59 9 34 8 -15 26 -31
40 -34 30 -8 37 -3 28 20 -7 18 -78 59 -87 50 -2 -3 -7 2 -10 11 -8 20 1 19
47 -8z m1186 5 c0 -13 -12 -22 -22 -16 -10 6 -1 24 13 24 5 0 9 -4 9 -8z
m-2161 -36 c27 -28 41 -96 20 -95 -14 0 -70 105 -61 114 10 9 18 5 41 -19z
m1255 8 c10 -25 7 -62 -5 -70 -19 -12 -32 13 -25 50 7 38 20 46 30 20z m1056
6 c0 -5 -4 -10 -10 -10 -5 0 -10 5 -10 10 0 6 5 10 10 10 6 0 10 -4 10 -10z
m-4060 -4 c0 -3 -4 -8 -10 -11 -5 -3 -10 -1 -10 4 0 6 5 11 10 11 6 0 10 -2
10 -4z m3866 -23 c-10 -10 -19 5 -10 18 6 11 8 11 12 0 2 -7 1 -15 -2 -18z
m-4008 2 c40 -16 92 -83 92 -118 0 -88 -123 -69 -169 27 -25 51 -26 64 -4 88
20 22 32 22 81 3z m1830 -8 c24 -26 39 -81 24 -91 -8 -5 -62 88 -62 107 0 14
17 6 38 -16z m692 9 c0 5 5 2 10 -6 5 -8 10 -28 9 -45 0 -34 -27 -102 -28 -72
-1 10 -4 16 -9 13 -4 -2 -7 24 -7 59 0 49 3 61 13 53 6 -6 12 -7 12 -2z
m-1220 -10 c0 -2 -8 -10 -17 -17 -16 -13 -17 -12 -4 4 13 16 21 21 21 13z
m1302 -11 c11 -15 10 -78 -3 -112 -7 -23 -16 -30 -33 -29 -22 1 -22 2 -9 46 8
25 13 60 11 77 -3 25 0 32 12 30 8 -1 18 -6 22 -12z m1496 -8 c4 -21 -25 -34
-40 -19 -8 8 -8 16 2 27 16 19 34 15 38 -8z m-1834 3 c20 -7 26 -17 26 -39 0
-34 -12 -45 -39 -36 -21 6 -46 58 -36 74 8 14 17 14 49 1z m-1177 -26 c-9 -9
-28 6 -21 18 4 6 10 6 17 -1 6 -6 8 -13 4 -17z m-288 -77 c11 -14 9 -21 -14
-49 -117 -138 -93 -282 57 -356 66 -32 66 -32 55 -61 -10 -28 -14 -29 -57 -27
-120 8 -230 130 -231 258 -2 106 31 187 109 271 l47 49 10 -34 c6 -20 16 -42
24 -51z m456 26 c-8 -46 -11 -51 -13 -27 -3 26 12 84 21 84 1 0 -2 -26 -8 -57z
m1098 38 c9 -11 9 -14 0 -18 -7 -3 -13 -17 -12 -31 0 -26 1 -26 9 -4 11 27 30
29 30 3 0 -11 5 -23 10 -26 6 -3 10 -16 10 -28 0 -12 14 -42 30 -66 28 -41 31
-61 9 -61 -6 0 -8 4 -5 8 2 4 -4 14 -16 21 -11 7 -17 8 -13 2 3 -6 4 -11 1
-11 -2 0 -14 16 -26 36 -35 55 -35 32 -1 -28 17 -29 31 -48 31 -43 0 19 90
-155 90 -175 0 -11 14 -34 31 -52 23 -26 28 -28 19 -10 -11 22 -10 23 8 13 11
-6 32 -25 46 -43 53 -67 55 -68 130 -68 64 0 77 -4 126 -35 58 -38 90 -43 139
-22 l32 14 -40 18 c-22 9 -47 15 -55 12 -8 -3 -16 -1 -18 5 -2 6 -30 14 -62
20 -32 5 -67 13 -78 19 -19 10 -19 11 -1 26 16 13 16 14 1 9 -10 -3 -18 -2
-18 2 1 29 66 57 112 47 20 -5 48 -24 70 -48 31 -33 47 -41 89 -48 31 -5 62
-17 75 -30 20 -19 30 -21 74 -15 43 6 56 3 95 -20 33 -19 54 -25 78 -21 17 3
41 2 52 -2 25 -10 103 12 176 50 77 40 105 38 211 -17 14 -8 44 -14 66 -14 61
0 90 -54 29 -55 -14 -1 -23 3 -20 8 3 5 0 7 -8 5 -8 -3 -26 3 -41 14 -17 12
-36 16 -50 13 -13 -3 -35 -2 -48 3 -14 5 -36 6 -50 2 -23 -6 -23 -7 11 -13 19
-4 51 -18 69 -32 19 -14 40 -25 48 -25 19 0 72 -55 72 -75 0 -35 -32 -28 -73
18 -52 57 -86 68 -116 36 -20 -21 -36 -20 -36 4 0 18 -22 19 -39 1 -11 -10
-15 -26 -12 -43 17 -88 17 -128 1 -141 -26 -21 -40 3 -42 73 -2 80 -4 97 -15
97 -5 0 -7 4 -4 9 9 13 -22 34 -39 27 -9 -3 -13 -2 -10 4 8 13 -31 13 -56 -1
-15 -8 -33 -5 -75 11 l-56 20 24 -30 c12 -17 35 -43 51 -57 15 -15 27 -36 27
-47 -1 -21 -1 -21 -16 -1 -15 19 -16 18 -9 -13 7 -35 -6 -62 -31 -62 -19 0
-33 31 -38 84 -4 55 -13 67 -30 43 -13 -17 -32 -25 -21 -8 6 11 -13 26 -22 17
-3 -3 -6 -20 -7 -37 -1 -38 -31 -63 -46 -39 -5 8 -12 32 -15 52 -4 24 -12 38
-21 38 -9 0 -12 -5 -8 -11 4 -7 1 -10 -7 -7 -8 3 -15 15 -17 27 -2 14 -9 21
-20 19 -13 -2 -18 -16 -20 -51 -4 -62 -22 -61 -22 2 0 47 -18 80 -38 67 -5 -3
-18 1 -28 9 -29 22 -47 18 -23 -6 18 -18 20 -28 14 -67 -3 -26 -11 -62 -17
-80 -7 -24 -7 -55 2 -111 14 -83 4 -126 -25 -115 -23 9 -28 47 -15 122 9 57 9
75 -4 113 -9 24 -16 62 -16 84 -1 31 -6 44 -25 58 -22 16 -25 16 -25 2 0 -9
-4 -14 -9 -11 -5 3 -9 0 -8 -7 2 -55 -5 -88 -19 -94 -24 -9 -42 17 -47 67 -3
30 -9 45 -18 45 -8 0 -20 6 -27 13 -20 18 -26 15 -40 -20 -29 -72 -32 -75 -30
-42 2 21 -6 41 -24 62 -30 36 -44 42 -28 13 15 -30 13 -98 -4 -104 -11 -4 -13
-1 -9 11 3 9 3 14 -2 10 -12 -11 -15 -122 -5 -158 10 -35 -5 -90 -25 -90 -26
0 -38 29 -33 82 5 50 -6 108 -21 108 -4 0 -12 -5 -19 -12 -17 -17 -26 13 -19
65 9 64 -7 122 -68 252 -32 66 -60 138 -63 160 -2 22 -13 56 -23 75 -23 43
-58 89 -59 74 0 -18 66 -208 89 -251 14 -28 21 -61 21 -96 0 -38 7 -68 25
-101 29 -54 31 -93 10 -188 -12 -59 -12 -75 1 -123 17 -68 18 -107 2 -123 -17
-17 -26 -15 -38 8 -7 13 -7 56 1 140 10 109 9 123 -6 147 l-17 26 -21 -33
c-17 -28 -19 -37 -9 -64 16 -44 15 -67 -4 -94 -8 -12 -10 -22 -5 -22 16 0 13
-66 -3 -79 -11 -9 -18 -8 -30 4 -19 19 -19 17 -6 51 8 20 7 32 -5 50 -8 13
-15 44 -15 69 0 26 -5 55 -10 66 -15 26 -29 110 -19 103 11 -6 11 -1 3 20 -9
23 -29 20 -47 -6 -12 -18 -18 -20 -28 -11 -16 16 -2 49 52 119 34 45 39 57 39
105 0 34 -3 49 -9 40 -13 -21 -24 5 -11 28 5 11 10 32 9 48 -1 25 -2 24 -11
-10 -9 -34 -11 -36 -23 -20 -12 16 -13 11 -13 -37 1 -109 -2 -130 -22 -150
-11 -11 -20 -27 -20 -35 0 -8 -10 -20 -22 -26 -18 -10 -24 -8 -38 9 l-17 20
-12 -20 c-16 -25 -1 -38 42 -38 15 0 27 -4 27 -9 0 -17 -12 -41 -21 -41 -4 0
-6 7 -3 15 8 19 -10 20 -25 2 -6 -9 -9 -43 -7 -90 3 -55 1 -80 -10 -94 -14
-17 -14 -17 -29 1 -11 14 -13 36 -8 96 4 54 2 79 -6 84 -20 12 -41 -14 -41
-50 0 -19 -5 -34 -11 -34 -8 0 -10 14 -6 39 7 54 -7 73 -32 43 -16 -18 -19
-34 -15 -90 4 -55 2 -71 -11 -82 -27 -23 -43 6 -46 85 -3 68 -15 105 -33 105
-4 0 -3 -7 4 -15 10 -12 10 -15 0 -15 -23 0 -50 32 -50 60 0 20 -6 29 -21 33
-27 7 -49 -1 -49 -19 0 -8 -7 -14 -16 -14 -8 0 -12 5 -9 10 3 6 -3 10 -13 10
-23 0 -46 -25 -38 -39 4 -5 1 -13 -5 -16 -7 -5 -8 -24 -4 -54 7 -52 -8 -78
-35 -61 -10 6 -14 30 -15 87 0 75 -1 78 -22 75 -17 -2 -21 1 -17 12 9 23 -23
21 -63 -4 -36 -21 -63 -66 -63 -103 0 -14 -6 -30 -14 -36 -12 -10 -17 -8 -25
8 -17 30 -13 45 19 86 27 35 39 65 24 65 -3 0 -19 -10 -36 -21 -26 -19 -35
-20 -66 -11 -42 13 -66 0 -32 -18 19 -10 21 -17 15 -48 -4 -21 -8 -57 -10 -82
-4 -69 -4 -70 -20 -70 -17 0 -18 3 -16 85 1 74 -14 108 -43 99 -28 -8 -57 -35
-50 -45 8 -13 -15 -49 -32 -49 -8 0 -20 13 -25 29 -6 16 -19 31 -30 34 -11 3
-18 11 -17 17 6 24 -19 20 -61 -11 -31 -22 -42 -36 -38 -49 6 -22 -35 -94 -48
-83 -4 4 -5 0 -2 -9 4 -10 2 -18 -3 -18 -5 0 -7 -6 -4 -14 3 -7 -2 -20 -10
-29 -9 -9 -16 -22 -16 -30 0 -23 -11 -47 -22 -47 -5 0 -7 27 -2 69 4 46 3 71
-5 75 -19 12 -12 55 12 76 51 47 57 54 57 64 0 6 -5 4 -10 -4 -8 -13 -10 -12
-10 3 0 9 15 27 33 38 17 12 24 18 14 15 -10 -3 -22 -6 -27 -6 -5 0 -16 -7
-25 -16 -9 -10 -22 -13 -33 -9 -26 11 -126 13 -133 3 -3 -5 -17 -10 -30 -10
-28 -2 -90 -44 -86 -60 4 -21 -21 -19 -28 2 -7 22 -7 22 -36 -6 -20 -19 -27
-34 -23 -47 9 -28 -3 -60 -28 -76 -22 -13 -23 -13 -6 6 10 11 18 26 18 34 0 7
-8 3 -17 -11 -13 -18 -17 -40 -15 -82 3 -48 0 -58 -16 -67 -30 -16 -41 6 -38
74 2 33 0 70 -5 83 -7 19 -12 21 -29 12 -11 -6 -18 -15 -15 -19 2 -5 -2 -14
-11 -22 -13 -10 -16 -9 -21 9 -3 12 -11 22 -18 22 -16 0 -28 -28 -18 -42 3 -6
2 -8 -4 -5 -6 4 -10 -9 -11 -30 -2 -52 -11 -73 -32 -73 -23 0 -30 18 -23 69 3
23 2 41 -4 41 -13 0 -15 -98 -2 -122 5 -10 16 -18 24 -18 7 0 16 -6 18 -12 4
-8 6 -7 6 3 1 9 8 22 16 29 8 7 15 23 15 35 0 33 30 64 65 67 29 3 30 2 27
-39 -3 -50 12 -93 33 -93 20 0 19 -5 -12 -121 -14 -54 -24 -102 -20 -105 3 -3
29 -2 59 3 l53 8 14 62 c13 57 16 62 45 67 70 11 186 18 186 10 -1 -5 -7 -38
-16 -74 -8 -36 -17 -83 -20 -104 -7 -51 -23 -80 -78 -142 -46 -53 -57 -57
-166 -70 -14 -2 -50 -7 -80 -13 -30 -5 -57 -7 -59 -5 -2 2 22 34 54 71 31 38
65 78 76 91 10 12 15 22 10 22 -6 0 -12 15 -14 33 -3 25 -4 23 -5 -14 l-2 -46
-64 -17 c-49 -14 -70 -25 -91 -52 -15 -19 -32 -31 -38 -27 -5 3 -7 1 -3 -5 3
-6 2 -14 -4 -17 -19 -12 10 -35 44 -36 l31 -1 -30 -9 c-32 -10 -35 -7 -198
168 l-39 41 28 98 c15 55 45 149 67 209 22 61 40 130 41 154 2 52 39 91 88 91
17 0 51 11 74 25 24 14 64 28 89 32 44 6 95 35 95 54 0 5 -7 9 -15 9 -8 0 -15
-4 -15 -10 0 -5 -18 -10 -40 -10 -22 0 -40 4 -40 10 0 13 34 30 59 30 12 0 38
9 58 20 48 25 67 25 123 -2 34 -17 65 -23 130 -24 47 -1 112 -5 145 -10 53 -9
69 -7 135 16 77 26 138 60 109 60 -8 0 -21 -6 -28 -12 -10 -11 -11 -9 -5 7 8
19 7 20 -19 2 -15 -9 -27 -14 -27 -10 0 5 -11 9 -25 9 -14 1 -23 -1 -20 -6 2
-4 -13 -13 -35 -20 -34 -11 -42 -11 -65 4 -31 21 -32 40 0 71 29 30 64 32 98
5 26 -21 86 -27 102 -11 17 17 119 51 151 51 46 0 50 -13 7 -25 l-38 -11 53
-12 c36 -8 59 -9 72 -2 22 12 70 13 70 3 -1 -11 -88 -63 -106 -63 -8 0 -14 4
-14 9 0 5 -17 0 -37 -10 -40 -21 -52 -46 -18 -41 11 2 39 6 63 9 28 3 46 12
52 24 16 29 68 51 109 46 21 -2 55 3 83 14 26 10 56 16 65 13 10 -3 25 -8 33
-11 10 -3 6 -9 -15 -17 l-30 -13 38 -7 c21 -4 48 -4 60 0 37 11 115 76 121 99
6 23 74 90 83 82 6 -7 -33 -81 -54 -102 -9 -10 -18 -26 -18 -37 -1 -11 -8 -24
-16 -29 -12 -7 -11 -9 2 -9 19 0 41 18 61 51 9 14 30 32 47 39 17 7 50 39 75
71 43 58 52 83 77 204 6 33 18 83 26 110 26 87 23 82 37 63 7 -10 15 -16 17
-13 3 2 5 -4 6 -15 2 -27 41 -109 42 -88 1 9 -3 20 -9 23 -5 3 -10 14 -10 24
0 29 56 24 70 -7 15 -35 21 -23 10 23 -15 62 -13 75 10 72 11 -2 26 -9 33 -16z
m1481 -90 c36 -48 66 -91 66 -94 0 -3 -8 -8 -17 -11 -14 -4 -14 -4 2 -3 23 2
45 -10 45 -24 0 -6 -4 -7 -10 -4 -6 3 -7 -1 -4 -10 4 -9 13 -14 20 -11 7 3 22
-7 33 -22 19 -26 19 -27 -1 -65 -13 -26 -24 -37 -34 -33 -11 4 -14 1 -9 -13 4
-14 -4 -27 -30 -47 -19 -15 -37 -25 -39 -23 -3 2 -45 60 -95 129 l-90 125 28
29 c25 25 31 27 52 16 23 -13 24 -12 7 7 -25 27 -23 46 3 38 16 -5 19 -4 14 6
-8 13 -17 99 -11 99 2 0 34 -40 70 -89z m343 78 c12 -12 6 -39 -11 -51 -34
-23 -59 11 -31 42 21 23 27 24 42 9z m-2796 -12 c-1 -12 -15 -9 -19 4 -3 6 1
10 8 8 6 -3 11 -8 11 -12z m2604 3 c3 -5 1 -10 -4 -10 -6 0 -11 5 -11 10 0 6
2 10 4 10 3 0 8 -4 11 -10z m-1548 -32 c-3 -7 -5 -2 -5 12 0 14 2 19 5 13 2
-7 2 -19 0 -25z m1082 -43 c0 -5 -4 -3 -9 5 -5 8 -9 22 -9 30 0 16 17 -16 18
-35z m-2583 -68 c14 -43 14 -50 0 -73 -14 -21 -20 -23 -38 -13 -17 9 -19 17
-14 52 18 128 28 159 33 112 2 -16 11 -52 19 -78z m184 93 c0 -5 -4 -10 -10
-10 -5 0 -10 5 -10 10 0 6 5 10 10 10 6 0 10 -4 10 -10z m995 -35 c-2 -20 -15
-49 -28 -65 -23 -27 -25 -27 -30 -10 -7 25 3 61 14 55 4 -3 15 8 24 25 20 39
24 38 20 -5z m669 -19 c-9 -26 -18 -45 -20 -43 -2 2 3 25 12 51 9 26 18 45 20
43 2 -2 -3 -25 -12 -51z m-1744 14 c0 -5 -5 -10 -11 -10 -5 0 -7 5 -4 10 3 6
8 10 11 10 2 0 4 -4 4 -10z m90 1 c0 -14 -18 -23 -30 -16 -6 4 -8 11 -5 16 8
12 35 12 35 0z m1900 -1 c0 -5 -4 -10 -10 -10 -5 0 -10 5 -10 10 0 6 5 10 10
10 6 0 10 -4 10 -10z m-1619 -17 c12 -16 12 -17 -2 -6 -9 7 -20 9 -24 5 -5 -4
-5 -1 -1 6 9 16 11 15 27 -5z m-76 1 c13 -5 14 -8 3 -15 -19 -12 -25 -11 -32
6 -6 16 3 19 29 9z m152 -14 c1 -11 -2 -20 -8 -20 -10 0 -12 23 -2 33 9 9 9
10 10 -13z m530 -52 c-2 -13 -4 -5 -4 17 -1 22 1 32 4 23 2 -10 2 -28 0 -40z
m1143 42 c0 -5 -4 -10 -10 -10 -5 0 -10 5 -10 10 0 6 5 10 10 10 6 0 10 -4 10
-10z m481 -139 c-1 -27 -17 -42 -37 -34 -22 8 -24 31 -6 107 l17 74 13 -61 c8
-34 13 -73 13 -86z m-441 129 c0 -5 -4 -10 -10 -10 -5 0 -10 5 -10 10 0 6 5
10 10 10 6 0 10 -4 10 -10z m-3204 -21 c3 -6 1 -16 -4 -21 -13 -13 -45 8 -36
23 7 12 31 11 40 -2z m3074 -13 c0 -8 -5 -18 -11 -22 -14 -8 -33 11 -25 25 10
16 36 13 36 -3z m-1970 -10 c0 -3 -4 -8 -10 -11 -5 -3 -10 -1 -10 4 0 6 5 11
10 11 6 0 10 -2 10 -4z m987 -33 c-3 -10 -5 -4 -5 12 0 17 2 24 5 18 2 -7 2
-21 0 -30z m1126 22 c0 -6 -7 -11 -16 -13 -12 -3 -15 1 -11 13 7 17 25 17 27
0z m948 -8 c-13 -13 -26 -3 -16 12 3 6 11 8 17 5 6 -4 6 -10 -1 -17z m-2680
-19 c8 -15 8 -18 0 -14 -6 4 -16 16 -22 28 -8 15 -8 18 0 14 6 -4 16 -16 22
-28z m-300 15 c10 -60 -6 -88 -36 -63 -18 15 -19 42 -3 58 13 13 37 16 39 5z
m188 -31 c-6 -18 -15 -32 -20 -32 -13 0 -11 8 8 41 21 36 26 32 12 -9z m-40
-48 c9 -11 1 -5 -16 15 -18 19 -33 39 -33 45 0 6 7 -1 17 -14 9 -14 23 -34 32
-46z m1175 44 c5 -9 7 -20 3 -24 -8 -8 -47 24 -47 38 0 15 32 5 44 -14z
m-1054 -29 c0 -17 -20 -29 -20 -11 0 4 -3 18 -7 32 -6 22 -5 24 10 11 9 -7 17
-22 17 -32z m2828 18 c4 -21 -25 -34 -40 -19 -8 8 -8 16 2 27 16 19 34 15 38
-8z m-4337 -10 c-13 -13 -26 -3 -16 12 3 6 11 8 17 5 6 -4 6 -10 -1 -17z
m1139 13 c0 -5 -2 -10 -4 -10 -3 0 -8 5 -11 10 -3 6 -1 10 4 10 6 0 11 -4 11
-10z m1240 -34 c0 -26 -6 -18 -14 19 -5 22 -4 26 4 15 5 -8 10 -24 10 -34z
m775 34 c3 -5 1 -10 -4 -10 -6 0 -11 5 -11 10 0 6 2 10 4 10 3 0 8 -4 11 -10z
m-1171 -34 c-6 -26 -34 -37 -34 -14 0 13 31 50 37 44 2 -2 1 -15 -3 -30z
m-367 2 c-3 -8 -6 -5 -6 6 -1 11 2 17 5 13 3 -3 4 -12 1 -19z m212 6 c-13 -16
-109 -68 -109 -59 0 2 22 16 49 30 27 13 52 29 56 35 3 5 9 10 12 10 3 0 0 -7
-8 -16z m2419 -5 c-2 -3 3 -13 11 -22 18 -22 7 -22 -18 0 -11 9 -18 21 -15 25
6 10 28 6 22 -3z m-3123 -38 c3 -5 1 -13 -5 -16 -15 -9 -43 3 -35 15 8 13 32
13 40 1z m320 -9 c-3 -3 -11 0 -18 7 -9 10 -8 11 6 5 10 -3 15 -9 12 -12z
m1179 -8 c49 -27 80 -71 67 -93 -15 -23 -44 -7 -72 39 -16 25 -33 53 -39 63
-14 22 -11 22 44 -9z m456 11 c21 -25 -2 -42 -36 -26 -21 9 -24 14 -14 26 16
19 34 19 50 0z m-1593 -11 c-3 -3 -12 -4 -19 -1 -8 3 -5 6 6 6 11 1 17 -2 13
-5z m87 -25 c-18 -20 -18 -20 11 -13 17 4 42 13 57 20 35 18 48 18 22 0 -22
-16 -131 -47 -160 -45 -11 0 -6 5 12 10 17 5 39 18 49 29 10 11 20 20 23 20 3
0 -3 -9 -14 -21z m1831 11 c3 -5 -1 -10 -9 -10 -9 0 -16 5 -16 10 0 6 4 10 9
10 6 0 13 -4 16 -10z m-3445 -10 c0 -5 -4 -10 -10 -10 -5 0 -10 5 -10 10 0 6
5 10 10 10 6 0 10 -4 10 -10z m1221 0 c39 -21 16 -70 -32 -70 -35 0 -54 22
-40 48 16 31 41 38 72 22z m139 -16 c0 -8 -7 -14 -16 -14 -8 0 -12 -4 -9 -10
3 -6 -1 -7 -9 -4 -21 8 -20 31 1 43 21 11 33 6 33 -15z m576 1 c-9 -14 -23
-36 -32 -50 -16 -24 -48 -33 -58 -16 -8 13 16 40 59 66 51 30 50 30 31 0z
m1329 -11 c0 -10 -8 -20 -18 -22 -22 -4 -35 27 -16 39 20 12 34 5 34 -17z
m-2245 -4 c0 -5 -4 -10 -10 -10 -5 0 -10 5 -10 10 0 6 5 10 10 10 6 0 10 -4
10 -10z m789 -12 c-21 -40 -49 -50 -49 -18 0 19 24 39 48 40 10 0 10 -5 1 -22z
m1193 11 c52 18 85 13 120 -18 27 -25 31 -33 22 -48 -14 -23 -51 -29 -72 -10
-9 8 -36 21 -59 28 -24 7 -43 16 -43 20 0 4 -9 11 -20 14 -11 3 -20 11 -20 16
0 6 8 5 21 -1 15 -8 29 -8 51 -1z m403 1 c3 -5 1 -10 -4 -10 -6 0 -11 5 -11
10 0 6 2 10 4 10 3 0 8 -4 11 -10z m375 -11 c0 -5 -7 -9 -15 -9 -15 0 -20 12
-9 23 8 8 24 -1 24 -14z m-966 -19 c16 -6 26 -17 26 -30 0 -25 -22 -26 -42 -2
-36 42 -32 51 16 32z m-2378 -31 c3 -6 2 -15 -2 -19 -12 -12 -38 5 -30 19 9
14 23 14 32 0z m1874 -21 c0 -23 -3 -29 -11 -21 -6 6 -8 20 -4 32 9 30 15 26
15 -11z m-1800 -4 c11 -12 10 -18 -3 -32 -16 -15 -18 -15 -34 0 -13 14 -14 20
-3 32 7 9 16 16 20 16 4 0 13 -7 20 -16z m3320 1 c0 -8 -4 -15 -9 -15 -13 0
-22 16 -14 24 11 11 23 6 23 -9z m-600 -20 c23 -27 -15 -47 -49 -26 -12 8 -12
12 -2 25 17 20 35 20 51 1z m-419 -26 c5 -11 6 -19 2 -19 -16 0 -53 31 -48 40
8 13 34 1 46 -21z m829 -14 c0 -8 -9 -15 -20 -15 -20 0 -26 11 -13 23 12 13
33 7 33 -8z m-3212 -36 c-2 -6 -8 -10 -13 -10 -5 0 -11 4 -13 10 -2 6 4 11 13
11 9 0 15 -5 13 -11z m46 -53 c-3 -8 -16 -16 -30 -19 -31 -6 -30 -1 4 17 34
19 32 19 26 2z m1151 -32 c13 -14 14 -19 3 -25 -8 -6 -9 -9 -1 -9 7 0 11 -27
10 -86 l-2 -85 75 -41 c41 -22 101 -57 135 -77 l60 -36 3 -130 3 -130 -49 -60
-48 -60 -129 -6 -130 -7 -50 54 -50 54 0 107 0 108 92 3 92 3 3 -53 c3 -53 3
-53 39 -56 45 -4 61 15 57 64 -3 35 -7 39 -88 84 -47 26 -91 45 -97 43 -7 -3
-16 2 -19 11 -3 9 -11 16 -17 16 -6 0 -19 7 -29 17 -14 13 -18 31 -18 86 0 57
6 81 32 136 17 36 38 71 47 78 23 17 57 16 76 -3z m202 -5 c-4 -16 -3 -19 5
-11 8 8 19 1 39 -25 25 -31 29 -44 29 -99 l0 -64 -90 0 -90 0 1 48 c2 102 12
146 39 159 14 7 36 13 49 13 19 0 22 -4 18 -21z m-989 -36 c30 -27 31 -30 21
-68 -6 -22 -10 -49 -10 -60 0 -10 -3 -24 -8 -30 -4 -5 -8 -26 -10 -44 -1 -19
-3 -37 -5 -38 -6 -7 -189 -23 -194 -18 -3 2 2 29 11 60 13 47 13 55 1 55 -8 0
-14 5 -14 11 0 6 7 8 15 5 12 -4 21 6 34 37 18 41 57 84 96 105 27 15 27 16
63 -15z m3237 17 c3 -5 1 -10 -4 -10 -6 0 -11 5 -11 10 0 6 2 10 4 10 3 0 8
-4 11 -10z m-1244 -23 c9 -7 22 -29 28 -50 7 -21 19 -41 26 -44 8 -2 11 -12 8
-21 -3 -9 6 -3 21 13 14 17 30 44 35 60 12 38 13 -102 2 -325 -4 -85 -7 -155
-7 -156 1 -1 32 2 71 6 38 4 74 6 80 3 8 -3 9 -18 3 -51 -5 -26 -9 -60 -9 -77
-1 -27 -1 -27 -7 -7 l-7 23 -29 -30 c-24 -25 -32 -28 -44 -19 -12 10 -14 9
-11 -7 4 -16 11 -19 39 -16 19 1 39 8 43 15 5 6 7 1 5 -14 -2 -14 -7 -25 -13
-25 -5 0 -83 7 -172 14 -157 13 -163 14 -158 35 2 11 9 120 15 241 18 361 29
446 60 445 3 -1 12 -6 21 -13z m-2559 -34 c-30 -29 -45 -57 -66 -120 -30 -94
-55 -154 -56 -136 0 17 59 181 81 225 15 29 55 65 77 68 2 0 -15 -17 -36 -37z
m886 7 c30 -39 77 -42 94 -5 23 50 58 22 58 -46 0 -28 6 -54 14 -62 19 -19 35
-105 62 -327 8 -69 19 -149 24 -179 6 -30 8 -56 5 -59 -2 -3 -36 -7 -75 -10
-38 -2 -70 -8 -70 -13 0 -5 -7 -6 -16 -2 -14 5 -16 -3 -13 -58 4 -59 2 -64
-17 -67 -27 -4 -37 20 -24 54 14 36 12 71 -3 77 -11 4 -13 29 -9 113 l5 107
-48 -6 c-26 -4 -56 -7 -66 -7 -11 0 -19 -7 -19 -17 0 -40 -45 -193 -57 -193
-7 0 -13 -5 -13 -11 0 -8 -4 -8 -13 -1 -10 9 -19 8 -34 -3 -18 -12 -19 -20
-12 -71 9 -67 -2 -97 -34 -92 -21 3 -22 7 -19 75 3 64 1 73 -17 83 -17 9 -22
8 -27 -5 -8 -20 -34 -19 -34 1 0 9 8 39 18 67 16 47 20 51 87 82 39 17 84 37
102 44 53 22 144 171 103 171 -5 0 -7 -6 -4 -13 3 -8 -14 -22 -47 -38 -41 -18
-60 -36 -87 -77 -30 -48 -35 -52 -50 -39 -36 31 -41 29 -53 -18 -6 -25 -15
-45 -19 -45 -16 0 79 325 106 365 8 11 14 26 14 35 0 9 8 27 17 40 10 14 18
31 20 39 1 8 11 27 22 42 12 16 21 32 21 38 0 13 58 61 74 61 7 0 22 -13 34
-30z m1122 15 c7 -8 13 -25 14 -39 0 -13 4 -22 8 -20 4 3 9 -10 12 -28 13 -87
14 -108 5 -103 -15 10 -10 -7 5 -19 19 -14 25 -98 8 -104 -14 -4 -84 -104 -77
-110 2 -2 35 13 74 34 50 27 72 45 77 63 11 38 22 -63 23 -228 l1 -133 -25 6
c-18 5 -27 2 -31 -9 -4 -10 -13 -13 -24 -10 -27 8 -33 -22 -25 -118 6 -67 4
-85 -8 -95 -20 -17 -46 -5 -53 24 -3 13 0 46 7 73 14 56 3 128 -19 123 -7 -1
-12 1 -12 5 -1 5 -2 81 -3 171 l-1 163 -45 -3 -45 -3 -1 -160 0 -159 -38 -1
c-41 -2 -55 8 -39 28 7 8 5 16 -4 25 -12 11 -14 9 -15 -10 -1 -13 -1 -29 0
-35 1 -8 -9 -13 -24 -13 -14 0 -25 -5 -25 -11 0 -8 -5 -8 -15 1 -12 10 -14 39
-12 161 1 82 5 148 8 147 3 -2 19 8 36 22 17 14 39 30 49 37 11 6 14 12 8 12
-6 1 -28 -10 -48 -24 -20 -14 -41 -25 -46 -25 -9 0 -16 131 -10 183 1 9 12 28
26 42 15 15 24 36 24 56 0 22 4 30 14 26 7 -3 23 1 35 9 21 15 21 14 21 -36 0
-60 15 -94 37 -86 12 5 14 1 11 -19 -5 -24 -3 -25 43 -25 l49 0 0 42 0 42 20
-22 c12 -12 24 -22 27 -22 4 0 -5 13 -20 28 -24 25 -27 36 -27 95 0 59 2 67
19 67 10 0 24 -7 31 -15z m1237 9 c-3 -3 -12 -4 -19 -1 -8 3 -5 6 6 6 11 1 17
-2 13 -5z m91 -34 c12 -12 22 -24 23 -28 0 -4 1 -30 2 -57 2 -47 27 -105 45
-105 5 0 17 6 28 14 16 12 19 27 19 88 0 71 1 73 25 74 14 0 37 4 53 8 37 11
79 -8 101 -45 14 -23 24 -29 44 -27 15 2 26 9 25 16 -4 19 5 15 52 -25 40 -33
46 -44 61 -112 l17 -75 -30 -25 -30 -26 58 -55 58 -55 16 -110 16 -109 -58
-58 -58 -58 -130 20 c-137 21 -168 25 -226 28 -35 2 -37 4 -43 45 -15 97 -47
326 -53 382 l-6 60 29 -25 c22 -19 20 -16 -7 16 -35 40 -43 64 -54 169 -2 17
-7 45 -11 63 -8 37 3 41 34 12z m-2957 -63 c-18 -18 -22 -2 -9 34 l13 34 3
-29 c2 -16 -1 -33 -7 -39z m2610 0 c22 -44 54 -47 77 -8 9 17 21 29 26 28 6
-2 22 -25 36 -53 27 -49 56 -67 71 -43 4 7 10 11 13 8 10 -10 147 -573 142
-585 -3 -8 -12 -11 -20 -8 -29 11 -41 -39 -25 -103 16 -66 14 -92 -6 -112 -13
-13 -17 -12 -36 4 -16 16 -19 27 -15 55 18 108 18 126 1 143 -19 19 -45 23
-45 6 0 -8 -4 -9 -13 0 -8 6 -22 55 -31 110 l-18 98 -51 6 c-28 4 -53 4 -56 1
-3 -3 -8 -49 -11 -102 l-5 -97 -30 2 c-16 1 -55 5 -86 8 l-55 6 8 62 c4 34 14
134 22 222 21 228 41 377 53 397 7 13 37 -13 54 -45z m-818 33 c-13 -5 -23
-17 -24 -27 0 -11 -3 -13 -6 -5 -7 17 15 42 36 41 11 0 9 -3 -6 -9z m1671 -61
c14 -17 26 -35 26 -41 0 -6 -1 -9 -2 -7 -2 2 -23 26 -48 53 -26 28 -36 44 -24
37 12 -6 34 -24 48 -42z m43 -121 c-3 -8 -6 -5 -6 6 -1 11 2 17 5 13 3 -3 4
-12 1 -19z m-4028 -142 c-12 -42 -24 -74 -26 -72 -2 2 6 38 18 80 12 42 24 74
26 72 2 -2 -6 -38 -18 -80z m2552 -63 c-12 -25 -30 -30 -49 -11 -20 20 -16 56
15 148 3 8 14 -14 25 -49 15 -50 17 -70 9 -88z m-73 -153 c2 -21 -2 -26 -24
-28 -38 -3 -57 15 -43 40 16 29 63 21 67 -12z m-4 -72 c15 -21 13 -43 -4 -33
-4 3 -13 -1 -18 -8 -9 -10 -4 -18 20 -32 17 -10 28 -13 24 -7 -4 7 12 3 36 -7
24 -10 42 -23 41 -29 -1 -5 6 -8 16 -5 21 5 48 -22 31 -32 -6 -4 -17 -2 -25 5
-9 8 -19 8 -33 1 -10 -5 -32 -10 -48 -9 -16 0 -40 -4 -55 -10 -27 -11 -76 -5
-85 9 -3 5 -20 9 -37 10 -68 1 -79 21 -27 47 14 7 36 19 50 27 14 8 34 17 45
21 12 4 15 8 8 11 -16 6 -17 35 -1 51 18 18 45 14 62 -10z m-699 -58 c4 -6 2
-17 -4 -24 -8 -10 -5 -16 15 -24 15 -7 22 -17 18 -24 -4 -6 -3 -8 3 -5 5 3 22
-1 38 -9 16 -8 36 -14 44 -13 31 3 41 -1 41 -17 0 -13 -7 -15 -34 -10 -19 4
-37 2 -40 -3 -3 -5 -41 -12 -83 -16 -59 -5 -89 -2 -122 9 -35 13 -42 13 -38 2
6 -14 -23 -18 -71 -9 -20 3 -22 6 -12 18 7 8 22 15 34 16 27 0 187 78 164 78
-21 1 -23 12 -6 29 15 15 45 16 53 2z m1131 -75 c13 -13 27 -25 29 -25 3 0 17
-3 31 -6 23 -6 24 -8 10 -16 -30 -17 -127 -18 -159 -2 -16 9 -31 13 -34 11 -8
-9 39 -30 82 -38 22 -4 2 -5 -44 -2 -46 3 -107 11 -135 17 -49 12 -50 12 -27
25 13 7 40 13 60 13 21 0 44 7 56 18 43 38 96 40 131 5z m-1888 -43 c2 -7 -7
-12 -23 -12 -24 0 -26 2 -15 15 14 17 31 16 38 -3z m1407 -12 l50 -9 -55 5
c-87 7 -140 15 -145 24 -4 6 15 4 150 -20z m-366 1 c20 -13 -3 -23 -33 -15
-14 3 -23 10 -20 15 7 11 35 11 53 0z m634 -27 c15 -8 27 -18 27 -23 0 -11
-44 -28 -90 -36 -44 -7 -125 16 -125 35 0 20 92 51 130 43 17 -3 42 -12 58
-19z m434 7 c17 -11 40 -17 52 -14 12 3 33 -2 48 -12 25 -17 26 -18 8 -31 -10
-8 -24 -14 -29 -14 -6 0 -4 5 4 10 12 8 11 10 -7 10 -15 0 -23 -6 -23 -16 0
-15 -9 -16 -72 -10 -68 6 -168 33 -168 45 1 44 131 66 187 32z m-1874 2 c4 -3
2 -12 -4 -19 -13 -16 20 -13 66 5 17 7 44 10 60 7 23 -5 27 -4 15 5 -26 18 98
1 127 -18 l26 -17 -49 -13 c-27 -7 -64 -13 -83 -13 l-33 0 23 -20 24 -19 -45
-2 c-38 -1 -41 -2 -20 -9 18 -6 20 -8 7 -9 -25 -1 -59 18 -52 30 4 5 -12 9
-37 8 -36 -1 -39 -2 -18 -9 37 -12 1 -12 -42 1 -45 12 -47 21 -10 48 l27 20
-27 1 c-27 0 -35 9 -21 23 8 9 58 9 66 0z m-593 -13 c-13 -8 -12 -10 4 -10 11
0 36 -11 55 -24 55 -38 87 -38 124 0 15 14 31 23 38 19 8 -6 7 -10 -2 -16 -35
-22 16 -7 60 17 38 22 54 26 85 20 20 -4 40 -14 43 -21 3 -8 9 -12 14 -9 13 8
49 -15 49 -31 0 -16 -38 -38 -85 -50 -16 -4 -73 -6 -125 -4 -52 2 -120 3 -150
4 -99 3 -116 5 -135 19 -15 11 -17 17 -8 28 10 12 2 13 -58 5 -38 -6 -72 -7
-76 -3 -11 10 11 26 42 30 17 2 44 11 60 20 33 18 92 23 65 6z m2923 -10 c-3
-11 -9 -20 -15 -20 -5 0 -4 9 2 20 6 11 12 20 14 20 2 0 2 -9 -1 -20z m-1773
0 c-14 -4 -38 -8 -55 -8 l-30 0 30 8 c17 4 41 8 55 8 l25 0 -25 -8z m222 -1
c3 -9 9 -9 25 -1 17 9 22 9 27 -3 3 -9 0 -15 -9 -15 -8 0 -15 -4 -15 -10 0 -5
7 -10 15 -10 8 0 15 -7 15 -15 0 -11 -10 -16 -32 -15 -18 0 -68 -3 -110 -6
-66 -5 -78 -3 -78 10 0 22 37 39 71 32 16 -3 29 -1 29 4 0 6 -7 10 -16 10 -8
0 -12 5 -9 10 4 6 22 8 43 5 28 -5 33 -4 22 4 -13 9 -13 11 2 11 9 0 18 -5 20
-11z m-348 -14 c11 -8 27 -15 37 -15 9 0 27 -9 40 -19 l24 -19 -25 -10 c-79
-29 -129 -36 -187 -23 -89 20 -107 29 -93 46 7 8 28 17 49 21 20 4 45 13 56
20 25 18 75 17 99 -1z m-1254 -5 c0 -5 -2 -10 -4 -10 -3 0 -8 5 -11 10 -3 6
-1 10 4 10 6 0 11 -4 11 -10z m1883 -4 c2 -11 -51 -31 -60 -22 -3 3 -3 12 1
21 6 17 55 18 59 1z m615 -12 c17 -8 32 -19 32 -23 0 -17 -29 -20 -57 -6 -36
17 -54 20 -75 11 -10 -5 -25 -5 -34 -2 -13 5 -14 9 -4 21 22 26 76 26 138 -1z
m-569 -7 c13 -16 -4 -37 -30 -37 -26 0 -32 16 -13 34 19 19 28 20 43 3z m1201
-18 c0 -5 -7 -9 -15 -9 -8 0 -15 7 -15 15 0 9 6 12 15 9 8 -4 15 -10 15 -15z
m-1708 -11 c-10 -10 -7 -15 10 -25 23 -12 23 -12 -9 -19 -18 -3 -33 -11 -33
-16 0 -5 -5 -6 -10 -3 -6 4 -30 -1 -54 -10 -30 -12 -50 -14 -61 -8 -14 8 -15
11 -1 22 8 7 27 14 41 15 29 4 67 34 59 47 -3 5 12 9 32 9 30 0 35 -3 26 -12z
m-1422 -7 c0 -5 -6 -13 -13 -19 -15 -13 -42 1 -33 17 8 13 46 15 46 2z m3255
-11 c3 -5 1 -10 -4 -10 -6 0 -11 5 -11 10 0 6 2 10 4 10 3 0 8 -4 11 -10z
m-3095 -10 c25 -16 7 -24 -65 -29 -17 -1 -18 -3 -5 -12 11 -8 9 -9 -10 -3 -36
10 -38 14 -11 35 25 20 67 25 91 9z m1511 -13 c-13 -13 -26 -3 -16 12 3 6 11
8 17 5 6 -4 6 -10 -1 -17z m354 -2 c0 -31 -49 -28 -53 3 -3 20 0 23 25 20 20
-2 28 -8 28 -23z m789 4 c-3 -5 -10 -7 -15 -3 -5 3 -7 10 -3 15 3 5 10 7 15 3
5 -3 7 -10 3 -15z m86 7 c0 -3 -4 -8 -10 -11 -5 -3 -10 -1 -10 4 0 6 5 11 10
11 6 0 10 -2 10 -4z m200 -6 c0 -5 -4 -10 -10 -10 -5 0 -10 5 -10 10 0 6 5 10
10 10 6 0 10 -4 10 -10z m-1570 -20 c0 -5 -2 -10 -4 -10 -3 0 -8 5 -11 10 -3
6 -1 10 4 10 6 0 11 -4 11 -10z m240 1 c0 -20 -13 -41 -25 -41 -15 0 -28 27
-19 41 7 12 44 12 44 0z m120 -1 c0 -5 -2 -10 -4 -10 -3 0 -8 5 -11 10 -3 6
-1 10 4 10 6 0 11 -4 11 -10z m914 -6 c20 -20 12 -34 -19 -34 -26 0 -39 22
-22 39 15 15 23 14 41 -5z m-2031 -8 c4 -9 -2 -17 -14 -21 -25 -8 -34 -1 -26
20 8 19 33 20 40 1z m187 -4 c0 -13 -12 -22 -22 -16 -10 6 -1 24 13 24 5 0 9
-4 9 -8z m1940 -22 c0 -5 -4 -10 -10 -10 -5 0 -10 5 -10 10 0 6 5 10 10 10 6
0 10 -4 10 -10z"/>
<path d="M2530 4703 c0 -5 8 -17 17 -28 14 -18 15 -18 9 -2 -3 10 -6 23 -6 28
0 5 -4 9 -10 9 -5 0 -10 -3 -10 -7z"/>
<path d="M2240 4545 c0 -3 16 -21 35 -39 21 -21 35 -29 35 -20 0 8 -4 14 -10
14 -16 0 -11 27 6 34 9 4 14 9 11 13 -4 3 -13 0 -21 -6 -11 -9 -20 -10 -35 -1
-12 6 -21 8 -21 5z"/>
<path d="M2715 4510 c-3 -5 -3 -10 2 -10 4 0 1 -5 -7 -10 -12 -8 -9 -10 13
-10 15 0 27 -4 27 -10 0 -5 4 -10 9 -10 5 0 3 14 -5 30 -16 31 -28 37 -39 20z"/>
<path d="M2151 4347 c-12 -15 -5 -27 16 -27 7 0 13 9 13 20 0 23 -13 26 -29 7z"/>
<path d="M2827 4347 c-3 -7 3 -13 14 -14 12 -1 16 3 12 13 -6 18 -19 18 -26 1z"/>
<path d="M2788 4313 c7 -3 16 -2 19 1 4 3 -2 6 -13 5 -11 0 -14 -3 -6 -6z"/>
<path d="M1690 4455 c7 -8 16 -15 21 -15 5 0 9 7 9 15 0 9 -9 15 -21 15 -18 0
-19 -2 -9 -15z"/>
<path d="M962 4358 c3 -7 18 -14 34 -16 28 -2 28 -2 10 13 -24 18 -49 20 -44
3z"/>
<path d="M1010 4280 c-12 -7 -4 -20 40 -64 30 -31 58 -56 62 -56 5 0 5 17 2
38 -3 25 -15 46 -37 64 -35 30 -44 32 -67 18z"/>
<path d="M4099 4074 c-10 -12 -14 -12 -20 -2 -5 7 -9 8 -9 2 0 -18 24 -42 65
-63 74 -39 99 -18 48 39 -32 35 -66 45 -84 24z"/>
<path d="M4420 3859 c7 -11 14 -18 17 -15 8 8 -5 36 -17 36 -7 0 -7 -6 0 -21z"/>
<path d="M4416 3818 c3 -13 12 -36 19 -53 12 -27 13 -28 14 -7 1 23 -24 82
-35 82 -3 0 -2 -10 2 -22z"/>
<path d="M4640 3693 c0 -36 15 -52 23 -23 3 10 -1 27 -9 37 -12 16 -13 15 -14
-14z"/>
<path d="M4485 3455 c-45 -26 -56 -45 -26 -45 12 0 21 5 21 10 0 6 6 10 13 10
11 0 42 39 35 45 -2 1 -21 -8 -43 -20z"/>
<path d="M4394 3460 c-21 -8 -54 -46 -54 -62 0 -5 9 -8 20 -8 19 0 90 58 90
74 0 8 -30 7 -56 -4z"/>
<path d="M4338 3366 c-10 -7 -18 -18 -18 -25 0 -14 2 -14 37 1 15 6 31 11 36
10 4 -1 7 5 7 13 0 19 -38 19 -62 1z"/>
<path d="M4370 3274 c0 -14 3 -14 15 -4 8 7 15 14 15 16 0 2 -7 4 -15 4 -8 0
-15 -7 -15 -16z"/>
<path d="M4330 3245 c0 -16 18 -37 53 -64 22 -17 22 -8 0 15 -10 9 -17 26 -18
38 0 12 -8 22 -17 24 -11 2 -18 -3 -18 -13z"/>
<path d="M4300 3146 c0 -25 12 -46 26 -46 8 0 14 -7 14 -15 0 -22 22 -28 53
-16 32 12 35 31 7 38 -11 3 -20 12 -20 21 0 12 -3 13 -12 4 -17 -17 -25 -15
-31 8 -6 23 -37 28 -37 6z"/>
<path d="M4413 3058 c-18 -23 -23 -64 -12 -103 10 -36 9 -41 -10 -53 -27 -18
-27 -28 0 -35 45 -12 81 75 47 112 -10 11 -10 12 -1 7 8 -4 15 2 19 18 12 49
-18 86 -43 54z"/>
<path d="M4370 2850 c0 -5 5 -10 10 -10 6 0 10 5 10 10 0 6 -4 10 -10 10 -5 0
-10 -4 -10 -10z"/>
<path d="M2370 3831 c0 -6 4 -12 8 -15 5 -3 9 1 9 9 0 8 -4 15 -9 15 -4 0 -8
-4 -8 -9z"/>
<path d="M2371 3784 c0 -11 3 -14 6 -6 3 7 2 16 -1 19 -3 4 -6 -2 -5 -13z"/>
<path d="M2341 3741 c-8 -5 -9 -11 -3 -15 5 -3 12 1 16 9 6 17 6 18 -13 6z"/>
<path d="M2325 3670 c-8 -13 -1 -24 14 -19 6 3 7 10 2 18 -6 10 -10 10 -16 1z"/>
<path d="M2106 3610 c-15 -5 -16 -9 -7 -15 22 -13 115 -8 146 9 l30 16 -27 0
c-15 0 -30 -5 -33 -11 -7 -11 -63 -10 -80 2 -5 3 -19 3 -29 -1z"/>
<path d="M2645 3693 c-18 -10 -25 -18 -17 -21 7 -2 22 4 33 14 14 12 23 14 30
7 14 -14 2 -53 -15 -53 -8 0 -19 -7 -26 -15 -10 -12 -9 -15 6 -15 25 1 52 22
47 37 -2 6 1 14 7 18 8 5 6 13 -6 26 -20 23 -21 23 -59 2z"/>
<path d="M2705 3610 c3 -5 8 -10 11 -10 2 0 4 5 4 10 0 6 -5 10 -11 10 -5 0
-7 -4 -4 -10z"/>
<path d="M3030 3589 c0 -5 5 -7 10 -4 6 3 10 8 10 11 0 2 -4 4 -10 4 -5 0 -10
-5 -10 -11z"/>
<path d="M3085 3570 c-16 -6 -13 -8 15 -12 42 -7 44 -6 22 8 -9 6 -26 8 -37 4z"/>
<path d="M1478 3929 c-26 -8 -51 -19 -55 -22 -9 -10 -10 -157 0 -157 15 0 132
63 154 82 31 29 39 74 17 99 -20 22 -47 22 -116 -2z"/>
<path d="M1313 3626 c-13 -6 -23 -14 -23 -17 0 -10 39 1 46 13 9 14 2 15 -23
4z"/>
<path d="M1263 3585 c-3 -9 -3 -18 -1 -21 3 -3 8 4 11 16 6 23 -1 27 -10 5z"/>
<path d="M1322 3512 c-17 -11 -12 -72 5 -65 15 6 17 23 3 23 -17 0 -11 28 8
39 9 6 13 10 7 11 -5 0 -16 -4 -23 -8z"/>
<path d="M1260 3409 c0 -5 5 -7 10 -4 6 3 10 8 10 11 0 2 -4 4 -10 4 -5 0 -10
-5 -10 -11z"/>
<path d="M3425 3630 c-3 -6 1 -7 9 -4 18 7 21 14 7 14 -6 0 -13 -4 -16 -10z"/>
<path d="M3360 3541 c0 -6 4 -13 10 -16 6 -3 7 1 4 9 -7 18 -14 21 -14 7z"/>
<path d="M3410 3510 c8 -5 22 -9 30 -9 10 0 8 3 -5 9 -27 12 -43 12 -25 0z"/>
<path d="M3550 3464 c0 -8 5 -12 10 -9 6 4 8 11 5 16 -9 14 -15 11 -15 -7z"/>
<path d="M3750 3410 c0 -5 5 -10 11 -10 5 0 7 5 4 10 -3 6 -8 10 -11 10 -2 0
-4 -4 -4 -10z"/>
<path d="M3122 2942 c-11 -25 -11 -25 4 -10 9 9 15 21 13 27 -2 6 -10 -2 -17
-17z"/>
<path d="M3026 2915 c-3 -9 -6 -22 -5 -28 0 -7 5 -1 10 12 5 13 8 26 5 28 -2
2 -6 -3 -10 -12z"/>
<path d="M3039 2870 c-11 -7 -10 -10 4 -16 10 -4 23 -2 28 3 14 14 -13 24 -32
13z"/>
<path d="M3094 2866 c-8 -22 3 -33 18 -18 9 9 9 15 0 24 -9 9 -13 7 -18 -6z"/>
<path d="M2051 3323 c-62 -26 -105 -142 -87 -237 17 -91 119 -101 182 -19 22
29 27 48 31 112 4 67 2 80 -19 111 -19 28 -31 35 -58 37 -19 1 -41 -1 -49 -4z
m21 -165 c-15 -15 -27 14 -17 40 6 15 8 15 18 -6 7 -16 7 -26 -1 -34z"/>
<path d="M1890 3024 c0 -8 5 -12 10 -9 6 4 8 11 5 16 -9 14 -15 11 -15 -7z"/>
<path d="M1830 3016 c0 -2 8 -10 18 -17 15 -13 16 -12 3 4 -13 16 -21 21 -21
13z"/>
<path d="M1860 2960 c0 -5 5 -10 11 -10 5 0 7 5 4 10 -3 6 -8 10 -11 10 -2 0
-4 -4 -4 -10z"/>
<path d="M1363 2764 c-13 -14 -23 -29 -23 -35 0 -6 -5 -20 -12 -32 -18 -34
-18 -49 0 -45 11 2 16 11 14 25 -3 24 23 83 37 83 5 0 11 7 15 15 8 22 -5 17
-31 -11z"/>
<path d="M1378 2692 c-7 -18 -16 -32 -21 -32 -4 0 -5 -4 -2 -10 3 -5 1 -10 -5
-10 -6 0 -8 -4 -5 -10 3 -5 2 -10 -2 -10 -5 0 -10 -11 -11 -26 -1 -14 2 -23 8
-19 6 3 10 13 10 21 0 8 8 21 19 30 11 10 16 24 14 35 -3 11 0 26 7 34 7 9 10
18 6 22 -3 4 -12 -8 -18 -25z"/>
<path d="M1290 2584 c0 -8 5 -12 10 -9 6 3 10 10 10 16 0 5 -4 9 -10 9 -5 0
-10 -7 -10 -16z"/>
<path d="M3470 2865 c0 -8 4 -15 10 -15 5 0 7 7 4 15 -4 8 -8 15 -10 15 -2 0
-4 -7 -4 -15z"/>
<path d="M3544 2812 c-6 -4 -8 -16 -4 -27 6 -17 7 -16 12 8 3 15 5 27 4 27 0
0 -6 -4 -12 -8z"/>
<path d="M3815 2760 c3 -5 11 -10 16 -10 6 0 7 5 4 10 -3 6 -11 10 -16 10 -6
0 -7 -4 -4 -10z"/>
<path d="M3513 2735 c0 -8 4 -15 9 -15 4 0 8 7 8 15 0 8 -4 15 -8 15 -5 0 -9
-7 -9 -15z"/>
<path d="M4025 2703 c-29 -7 -35 -16 -19 -31 10 -9 14 -10 14 -1 0 6 8 18 18
25 9 7 15 13 12 13 -3 -1 -14 -3 -25 -6z"/>
<path d="M4002 2632 c-10 -3 -9 -9 6 -26 11 -11 22 -31 24 -42 5 -18 1 -21
-17 -20 -12 0 -21 6 -18 12 2 6 -3 14 -11 17 -9 4 -16 13 -16 22 0 8 -5 15
-10 15 -6 0 -4 -13 5 -30 8 -16 15 -33 13 -37 -1 -5 7 -10 18 -12 10 -2 25 -8
32 -14 7 -5 15 -7 19 -3 3 3 0 6 -8 7 -10 0 -9 2 3 7 15 6 15 10 -2 45 -10 21
-20 44 -22 51 -2 7 -9 11 -16 8z"/>
<path d="M2597 3020 c8 -9 9 -19 2 -32 -9 -17 -11 -17 -37 -2 -15 9 -20 10
-12 3 37 -33 40 -43 26 -84 -8 -21 -21 -44 -30 -50 -15 -11 -15 -14 -1 -25 13
-11 14 -10 9 3 -3 10 5 23 25 38 17 13 31 27 31 32 0 5 -7 4 -15 -3 -9 -8 -15
-9 -15 -2 0 6 5 14 11 18 6 3 9 17 6 30 -2 14 3 31 13 42 17 18 17 19 -4 32
-17 10 -19 10 -9 0z"/>
<path d="M2270 2940 c0 -5 9 -10 21 -10 11 0 17 5 14 10 -3 6 -13 10 -21 10
-8 0 -14 -4 -14 -10z"/>
<path d="M2665 2920 c-3 -5 -2 -10 4 -10 5 0 13 5 16 10 3 6 2 10 -4 10 -5 0
-13 -4 -16 -10z"/>
<path d="M2320 2815 c7 -8 16 -15 21 -15 5 0 6 7 3 15 -4 8 -13 15 -21 15 -13
0 -13 -3 -3 -15z"/>
<path d="M2455 2809 c-4 -6 -4 -13 -1 -16 3 -4 6 -1 6 6 0 8 6 11 16 7 8 -3
12 -2 9 4 -8 13 -22 13 -30 -1z"/>
<path d="M2680 2779 c0 -5 5 -7 10 -4 6 3 10 8 10 11 0 2 -4 4 -10 4 -5 0 -10
-5 -10 -11z"/>
<path d="M2435 2740 c3 -5 8 -10 11 -10 2 0 4 5 4 10 0 6 -5 10 -11 10 -5 0
-7 -4 -4 -10z"/>
<path d="M2220 2701 c0 -9 38 -12 44 -3 2 4 -7 8 -20 8 -13 1 -24 -1 -24 -5z"/>
<path d="M2660 2681 c0 -5 5 -13 10 -16 6 -3 10 -2 10 4 0 5 -4 13 -10 16 -5
3 -10 2 -10 -4z"/>
<path d="M2124 2465 c19 -14 36 -12 36 6 0 5 -12 9 -27 9 -27 -1 -27 -1 -9
-15z"/>
<path d="M2440 2460 c-8 -5 -10 -10 -5 -10 6 0 17 5 25 10 8 5 11 10 5 10 -5
0 -17 -5 -25 -10z"/>
<path d="M2398 2443 c7 -3 16 -2 19 1 4 3 -2 6 -13 5 -11 0 -14 -3 -6 -6z"/>
<path d="M2685 2520 c13 -43 42 -94 65 -115 18 -16 15 -6 -15 50 -41 78 -62
105 -50 65z"/>
<path d="M4404 2415 c-10 -8 -14 -14 -9 -14 6 0 19 6 29 14 11 8 15 15 10 15
-6 0 -19 -7 -30 -15z"/>
<path d="M3280 2376 c0 -9 5 -16 10 -16 6 0 10 4 10 9 0 6 -4 13 -10 16 -5 3
-10 -1 -10 -9z"/>
<path d="M3144 2301 c9 -17 20 -30 24 -29 11 2 46 -15 54 -26 12 -18 10 10 -4
38 -6 14 -20 28 -32 32 -63 18 -59 19 -42 -15z"/>
<path d="M1986 2199 c-19 -19 -19 -19 2 -19 11 0 24 -4 27 -10 15 -24 24 -7
10 20 -18 35 -15 34 -39 9z"/>
<path d="M3346 2175 c-3 -8 -1 -15 4 -15 6 0 10 7 10 15 0 8 -2 15 -4 15 -2 0
-6 -7 -10 -15z"/>
<path d="M430 2119 c0 -11 38 -22 50 -14 6 4 8 10 5 14 -6 11 -55 11 -55 0z"/>
<path d="M1070 1880 c36 -12 62 -12 55 0 -3 6 -23 10 -43 9 -33 -1 -34 -2 -12
-9z"/>
<path d="M2580 2094 c0 -14 27 -50 33 -44 3 3 -3 16 -13 30 -11 14 -20 20 -20
14z"/>
<path d="M2566 1952 c-4 -7 -7 -25 -6 -40 5 -64 0 -92 -15 -92 -9 0 -15 -9
-15 -24 0 -14 -11 -38 -25 -54 -13 -16 -22 -32 -18 -35 3 -3 -6 -20 -21 -37
-14 -17 -26 -35 -26 -38 0 -4 -10 -12 -22 -17 -31 -14 -36 -45 -8 -45 56 0
110 49 110 98 0 9 16 53 35 97 34 79 43 137 26 179 -5 14 -10 16 -15 8z"/>
<path d="M2639 1922 c-3 -20 -2 -29 4 -23 5 5 7 19 5 32 -3 20 -5 19 -9 -9z"/>
<path d="M2810 1831 c0 -6 4 -13 10 -16 6 -3 7 1 4 9 -7 18 -14 21 -14 7z"/>
<path d="M2896 1740 c45 -81 119 -170 141 -170 21 0 15 14 -20 46 -17 16 -54
54 -81 84 -27 30 -45 48 -40 40z"/>
<path d="M2446 1675 c-14 -13 -26 -27 -26 -31 0 -4 14 5 30 21 17 16 30 30 30
32 0 7 -9 2 -34 -22z"/>
<path d="M2756 1651 c-3 -5 1 -14 9 -21 12 -10 15 -10 15 3 0 19 -16 31 -24
18z"/>
<path d="M1403 1623 c9 -2 23 -2 30 0 6 3 -1 5 -18 5 -16 0 -22 -2 -12 -5z"/>
<path d="M2275 1624 c-60 -13 -95 -28 -82 -36 15 -8 103 17 113 33 5 9 3 10
-31 3z"/>
<path d="M3470 1568 c14 -6 48 -21 75 -34 38 -18 65 -23 112 -21 74 2 68 18
-8 21 -30 1 -72 10 -94 20 -22 10 -56 20 -75 21 -33 3 -33 3 -10 -7z"/>
<path d="M3070 1566 c0 -2 7 -7 16 -10 8 -3 12 -2 9 4 -6 10 -25 14 -25 6z"/>
<path d="M1790 1440 c0 -5 5 -10 10 -10 6 0 10 5 10 10 0 6 -4 10 -10 10 -5 0
-10 -4 -10 -10z"/>
<path d="M2650 1445 c0 -5 5 -17 10 -25 5 -8 10 -10 10 -5 0 6 -5 17 -10 25
-5 8 -10 11 -10 5z"/>
<path d="M2930 1416 c0 -9 5 -16 10 -16 6 0 10 4 10 9 0 6 -4 13 -10 16 -5 3
-10 -1 -10 -9z"/>
<path d="M2008 1403 c7 -3 16 -2 19 1 4 3 -2 6 -13 5 -11 0 -14 -3 -6 -6z"/>
<path d="M1327 1393 c-4 -3 -7 -11 -7 -17 0 -6 5 -5 12 2 6 6 9 14 7 17 -3 3
-9 2 -12 -2z"/>
<path d="M2980 1240 c-9 -6 -10 -10 -3 -10 6 0 15 5 18 10 8 12 4 12 -15 0z"/>
<path d="M722 1152 c-27 -48 -14 -76 33 -70 24 2 31 8 33 31 3 27 -20 77 -36
77 -5 0 -18 -17 -30 -38z"/>
<path d="M585 1146 c-23 -34 -32 -96 -14 -96 32 0 59 13 73 35 13 20 13 25 -7
53 -27 38 -32 39 -52 8z"/>
<path d="M664 1085 c-3 -8 -3 -19 0 -24 10 -16 36 -1 36 20 0 22 -28 26 -36 4z"/>
<path d="M632 1000 c-13 -22 -20 -45 -17 -50 9 -15 97 -11 118 4 18 14 17 16
-5 50 -33 50 -65 49 -96 -4z"/>
<path d="M1004 1008 l-19 -23 23 19 c21 18 27 26 19 26 -2 0 -12 -10 -23 -22z"/>
<path d="M940 986 c0 -2 7 -7 16 -10 8 -3 12 -2 9 4 -6 10 -25 14 -25 6z"/>
<path d="M538 903 l-37 -25 31 -34 32 -34 38 37 c34 33 36 38 21 46 -10 6 -25
15 -33 22 -12 10 -22 8 -52 -12z"/>
<path d="M1040 903 c-30 -13 -57 -29 -59 -35 -2 -5 -25 -38 -52 -74 -27 -35
-49 -66 -49 -70 0 -6 55 1 92 12 9 3 27 22 39 42 13 20 40 60 61 89 54 74 53
75 -32 36z"/>
<path d="M885 837 c-4 -10 -5 -21 -1 -24 10 -10 18 4 13 24 -4 17 -4 17 -12 0z"/>
<path d="M4220 2110 c-13 -9 -13 -11 0 -20 23 -15 29 -12 23 10 -3 11 -6 20
-7 20 0 0 -8 -5 -16 -10z"/>
<path d="M4300 1926 c5 -7 7 -16 3 -19 -3 -4 3 -7 15 -7 34 0 24 34 -11 36
-13 2 -15 -1 -7 -10z"/>
<path d="M2501 2024 c0 -11 3 -14 6 -6 3 7 2 16 -1 19 -3 4 -6 -2 -5 -13z"/>
<path d="M1535 1750 c-16 -7 -17 -9 -3 -9 9 -1 20 4 23 9 7 11 7 11 -20 0z"/>
<path d="M3418 1703 c6 -2 18 -2 25 0 6 3 1 5 -13 5 -14 0 -19 -2 -12 -5z"/>
<path d="M2020 1220 c-9 -6 -10 -10 -3 -10 6 0 15 5 18 10 8 12 4 12 -15 0z"/>
<path d="M1850 1020 c-9 -16 -8 -18 5 -14 8 4 15 12 15 20 0 20 -7 17 -20 -6z"/>
<path d="M2147 980 c-38 -16 -70 -30 -72 -32 -13 -16 -56 -91 -53 -94 2 -2 50
16 106 39 l102 42 0 38 c0 20 -3 37 -7 36 -5 0 -39 -13 -76 -29z"/>
<path d="M1816 965 c-15 -23 -23 -65 -9 -52 3 4 13 1 21 -6 13 -10 14 -9 2 10
-11 17 -11 27 -2 47 15 33 9 33 -12 1z"/>
<path d="M1988 924 c-4 -3 -12 -7 -20 -8 -37 -6 -57 -20 -90 -60 -35 -42 -36
-45 -19 -60 10 -9 24 -16 32 -16 8 0 43 34 77 75 48 57 58 75 44 75 -10 0 -21
-3 -24 -6z"/>
<path d="M2170 845 c-7 -9 -11 -17 -9 -20 3 -2 10 5 17 15 14 24 10 26 -8 5z"/>
<path d="M2035 796 c-30 -13 -30 -13 -6 -20 24 -8 46 4 40 22 -3 7 -15 6 -34
-2z"/>
<path d="M2130 794 c0 -8 5 -12 10 -9 6 4 8 11 5 16 -9 14 -15 11 -15 -7z"/>
<path d="M1945 780 c3 -5 11 -10 16 -10 6 0 7 5 4 10 -3 6 -11 10 -16 10 -6 0
-7 -4 -4 -10z"/>
<path d="M1130 1449 c0 -5 5 -7 10 -4 6 3 10 8 10 11 0 2 -4 4 -10 4 -5 0 -10
-5 -10 -11z"/>
<path d="M3170 1294 c0 -8 5 -12 10 -9 6 3 10 10 10 16 0 5 -4 9 -10 9 -5 0
-10 -7 -10 -16z"/>
<path d="M3198 1234 c-30 -16 -85 -64 -74 -64 4 0 22 11 40 25 18 14 38 25 43
25 6 0 13 7 17 15 6 18 8 18 -26 -1z"/>
<path d="M3175 1102 l-70 -37 -3 -48 -3 -49 80 44 81 43 0 43 c0 23 -3 42 -7
42 -5 0 -39 -17 -78 -38z"/>
<path d="M3300 911 c-49 -7 -175 -85 -165 -102 4 -5 8 -9 11 -9 3 0 2 5 -1 10
-3 6 2 13 12 17 10 4 21 11 25 17 5 7 8 5 8 -5 0 -9 -9 -28 -21 -43 l-20 -26
37 0 c34 0 45 8 106 71 68 72 75 80 61 78 -5 -1 -28 -5 -53 -8z"/>
<path d="M1483 1340 c-10 -23 -63 -212 -63 -223 0 -4 91 3 97 7 1 1 -4 55 -11
121 -11 100 -14 116 -23 95z"/>
<path d="M1576 1255 c4 -8 8 -15 10 -15 2 0 4 7 4 15 0 8 -4 15 -10 15 -5 0
-7 -7 -4 -15z"/>
<path d="M1360 1243 c-14 -16 -12 -21 20 -48 19 -16 29 -23 23 -14 -7 9 -10
19 -6 22 3 4 -2 7 -11 7 -14 0 -17 6 -14 25 6 30 6 30 -12 8z"/>
<path d="M1610 1107 c-36 -20 -115 -129 -98 -136 13 -5 158 69 158 81 0 5 3 7
8 4 4 -2 6 13 4 34 -5 44 -16 47 -72 17z"/>
<path d="M1590 900 c-14 -10 -22 -21 -19 -24 3 -3 16 5 29 19 28 30 24 32 -10
5z"/>
<path d="M1634 851 c-10 -17 -26 -31 -35 -31 -20 0 -21 -47 -2 -54 7 -3 10 2
8 13 -3 14 1 17 15 14 11 -3 31 4 46 16 24 18 24 21 7 21 -27 0 -35 10 -21 27
6 7 8 16 5 19 -3 3 -13 -8 -23 -25z m17 -44 c-13 -13 -26 -3 -16 12 3 6 11 8
17 5 6 -4 6 -10 -1 -17z"/>
<path d="M1705 850 c-3 -5 -1 -10 4 -10 6 0 11 5 11 10 0 6 -2 10 -4 10 -3 0
-8 -4 -11 -10z"/>
<path d="M1298 793 c7 -3 16 -2 19 1 4 3 -2 6 -13 5 -11 0 -14 -3 -6 -6z"/>
<path d="M1680 780 c0 -5 12 -10 28 -9 24 0 25 1 7 9 -27 12 -35 12 -35 0z"/>
<path d="M2385 1016 c-55 -32 -60 -38 -66 -75 -3 -23 -4 -41 -3 -41 1 0 33 17
71 39 63 36 68 41 70 75 1 20 -1 36 -5 36 -4 0 -34 -16 -67 -34z"/>
<path d="M2725 950 c3 -5 8 -10 11 -10 2 0 4 5 4 10 0 6 -5 10 -11 10 -5 0 -7
-4 -4 -10z"/>
<path d="M2697 894 c3 -8 -5 -17 -20 -23 -13 -5 -27 -17 -31 -26 -3 -9 -10
-14 -14 -11 -5 3 -9 0 -10 -7 0 -7 -2 -21 -4 -32 -2 -16 2 -19 22 -17 13 1 29
7 35 13 7 7 5 10 -5 9 -30 -4 -39 0 -33 16 3 8 11 13 18 10 8 -3 11 2 8 13 -3
13 3 21 19 26 13 4 27 7 31 6 5 -1 6 3 3 8 -4 5 -1 11 6 13 7 3 3 7 -9 10 -16
4 -20 2 -16 -8z"/>
<path d="M2733 844 c-7 -3 -10 -11 -7 -19 3 -7 1 -16 -5 -20 -6 -3 -11 -11
-11 -18 0 -13 23 19 33 46 4 9 5 17 4 16 -1 0 -7 -3 -14 -5z"/>
<path d="M2625 560 c-3 -5 -1 -10 4 -10 6 0 11 5 11 10 0 6 -2 10 -4 10 -3 0
-8 -4 -11 -10z"/>
<path d="M4102 1238 c-9 -9 -3 -27 24 -79 31 -59 39 -67 62 -65 22 3 29 13 50
67 22 60 22 64 6 76 -22 16 -126 17 -142 1z"/>
<path d="M4380 1239 c0 -5 5 -7 10 -4 6 3 10 8 10 11 0 2 -4 4 -10 4 -5 0 -10
-5 -10 -11z"/>
<path d="M4267 1109 c-34 -34 -38 -42 -30 -66 8 -24 17 -29 59 -35 69 -11 78
-6 69 40 -6 34 -43 103 -55 101 -3 0 -22 -18 -43 -40z"/>
<path d="M4035 1116 c-15 -23 -25 -110 -14 -121 3 -2 33 1 67 7 60 11 62 12
62 42 -1 25 -9 37 -43 61 -56 40 -53 40 -72 11z"/>
<path d="M4167 1047 c-8 -21 8 -39 29 -35 27 5 25 42 -2 46 -12 2 -24 -3 -27
-11z"/>
<path d="M4141 939 c-19 -42 -21 -53 -10 -60 19 -12 116 -11 140 1 18 10 17
13 -14 60 -26 41 -37 50 -62 50 -27 0 -33 -6 -54 -51z"/>
<path d="M3994 939 c-3 -6 -1 -16 4 -21 8 -8 11 -5 9 11 -1 24 -3 25 -13 10z"/>
<path d="M4391 937 c2 -1 12 -9 22 -16 15 -12 17 -12 11 3 -3 9 -13 16 -22 16
-8 0 -13 -1 -11 -3z"/>
<path d="M4360 880 c0 -5 5 -10 10 -10 6 0 10 5 10 10 0 6 -4 10 -10 10 -5 0
-10 -4 -10 -10z"/>
<path d="M4038 813 c-20 -22 -25 -35 -21 -60 8 -47 32 -42 87 19 25 28 45 52
44 53 -2 2 -21 6 -43 9 -36 6 -43 4 -67 -21z"/>
<path d="M4474 814 c-18 -14 -18 -15 4 -4 12 6 22 13 22 15 0 8 -5 6 -26 -11z"/>
<path d="M4187 756 l-46 -54 41 -6 c40 -6 42 -5 88 46 26 29 46 56 43 61 -2 4
-21 7 -42 7 -33 0 -43 -7 -84 -54z"/>
<path d="M4376 724 l-48 -55 42 3 c37 3 48 10 88 56 l45 52 -40 0 c-35 0 -44
-6 -87 -56z"/>
<path d="M3653 1193 c-6 -60 -10 -109 -9 -109 0 -1 18 -5 40 -8 30 -6 38 -4
34 6 -3 7 -14 59 -24 116 -10 56 -21 102 -24 102 -4 0 -11 -48 -17 -107z"/>
<path d="M3616 1087 c3 -10 9 -15 12 -12 3 3 0 11 -7 18 -10 9 -11 8 -5 -6z"/>
<path d="M3534 1046 c-24 -16 -33 -30 -36 -58 -2 -21 -2 -38 0 -38 9 0 92 46
119 68 34 25 36 42 5 40 -9 -1 -26 1 -37 4 -12 4 -33 -3 -51 -16z"/>
<path d="M3679 979 c-46 -39 -46 -37 7 -54 14 -4 109 64 100 72 -2 2 -17 7
-33 12 -25 7 -35 4 -74 -30z"/>
<path d="M3826 946 c-22 -19 -25 -26 -15 -32 8 -5 14 -18 14 -28 0 -17 7 -20
43 -21 43 -1 43 -1 36 29 -18 82 -30 91 -78 52z"/>
<path d="M3550 830 c0 -5 4 -10 9 -10 6 0 13 5 16 10 3 6 -1 10 -9 10 -9 0
-16 -4 -16 -10z"/>
<path d="M3600 820 c-6 -11 -18 -20 -26 -20 -8 0 -12 -5 -9 -10 18 -30 -38
-45 -57 -16 -4 6 -10 7 -14 3 -10 -9 14 -33 42 -41 16 -5 26 0 38 19 9 14 13
25 10 25 -4 0 0 8 8 18 19 22 31 42 24 42 -3 0 -10 -9 -16 -20z"/>
<path d="M3880 830 c0 -5 5 -10 10 -10 6 0 10 5 10 10 0 6 -4 10 -10 10 -5 0
-10 -4 -10 -10z"/>
<path d="M3526 800 c-15 -5 -16 -9 -7 -14 7 -5 18 -3 24 3 14 14 6 20 -17 11z"/>
<path d="M3850 779 c0 -5 5 -7 10 -4 6 3 10 8 10 11 0 2 -4 4 -10 4 -5 0 -10
-5 -10 -11z"/>
<path d="M3019 527 c11 -11 111 -11 122 0 4 4 -23 8 -61 8 -38 0 -65 -4 -61
-8z"/>
<path d="M3588 534 c-3 -3 -28 -9 -55 -14 l-48 -8 52 -1 c57 -1 86 6 77 20 -6
10 -18 12 -26 3z"/>
<path d="M1510 494 c-15 -9 -45 -13 -77 -12 -42 3 -49 1 -40 -11 8 -10 27 -12
67 -8 65 6 117 26 98 39 -16 10 -17 9 -48 -8z"/>
<path d="M1173 473 c15 -2 39 -2 55 0 15 2 2 4 -28 4 -30 0 -43 -2 -27 -4z"/>
<path d="M1285 469 c4 -5 22 -9 42 -9 45 0 40 5 -10 13 -22 3 -35 2 -32 -4z"/>
<path d="M2140 478 c-19 -5 -49 -8 -67 -6 -18 2 -30 1 -25 -3 7 -7 49 -12 88
-10 11 1 29 8 40 16 22 16 13 17 -36 3z"/>
<path d="M842 4035 c-6 -14 -9 -31 -6 -39 3 -8 1 -17 -5 -21 -6 -3 -11 1 -11
9 0 9 -2 16 -5 16 -18 0 -64 -33 -79 -55 -19 -29 -10 -37 39 -31 17 3 33 5 38
5 4 1 7 8 7 16 0 8 4 15 9 15 9 0 26 38 35 83 8 34 -7 36 -22 2z"/>
<path d="M573 3963 c-18 -9 -33 -23 -33 -30 0 -7 2 -13 5 -13 14 0 95 43 95
51 0 14 -31 10 -67 -8z"/>
<path d="M690 3900 c-8 -5 -11 -12 -8 -16 10 -9 38 3 38 16 0 12 -10 13 -30 0z"/>
<path d="M518 3625 c5 -29 56 -85 77 -85 11 0 8 10 -10 38 -46 70 -76 91 -67
47z"/>
<path d="M444 3609 c3 -17 6 -35 6 -39 0 -16 50 -60 69 -60 18 0 19 3 8 28
-38 86 -96 136 -83 71z"/>
<path d="M585 3467 c11 -9 28 -17 38 -17 10 0 17 -8 17 -20 0 -11 5 -20 11
-20 6 0 17 -7 26 -15 8 -9 18 -14 20 -11 10 10 -8 56 -22 56 -8 0 -18 7 -23
15 -4 9 -26 18 -48 22 -37 5 -38 5 -19 -10z"/>
<path d="M758 3405 c-4 -4 -4 -13 -2 -20 3 -7 -4 -15 -15 -18 -12 -3 -23 -17
-27 -33 -4 -16 -15 -36 -25 -45 -16 -14 -15 -15 17 -16 25 -1 39 5 53 23 12
15 21 20 23 12 6 -18 28 1 28 25 0 25 -42 82 -52 72z"/>
<path d="M492 3158 c-17 -17 -15 -25 10 -31 22 -6 58 16 58 35 0 12 -54 10
-68 -4z"/>
<path d="M560 3120 c-10 -19 -9 -21 12 -18 13 2 23 9 23 17 0 23 -23 24 -35 1z"/>
<path d="M620 2505 c0 -17 35 -55 46 -51 19 7 27 -25 8 -38 -14 -11 -13 -14 6
-36 l21 -25 -4 28 c-2 15 0 27 5 27 15 0 0 52 -23 76 -20 21 -59 33 -59 19z"/>
<path d="M575 2490 c3 -5 11 -10 16 -10 6 0 7 5 4 10 -3 6 -11 10 -16 10 -6 0
-7 -4 -4 -10z"/>
<path d="M1090 2400 c-6 -11 -8 -20 -6 -20 3 0 10 9 16 20 6 11 8 20 6 20 -3
0 -10 -9 -16 -20z"/>
<path d="M726 2368 c-9 -36 -7 -48 9 -48 10 0 15 11 15 35 0 39 -14 47 -24 13z"/>
<path d="M653 2366 c4 -10 7 -22 7 -27 0 -5 4 -9 9 -9 12 0 2 38 -12 47 -7 4
-8 0 -4 -11z"/>
<path d="M600 2311 c0 -11 5 -23 10 -26 6 -3 10 3 10 14 0 11 -4 23 -10 26 -5
3 -10 -3 -10 -14z"/>
<path d="M974 2284 c8 -20 -10 -44 -34 -44 -10 0 -23 -7 -30 -15 -9 -11 -10
-15 -1 -15 8 0 4 -12 -9 -30 -16 -22 -25 -28 -34 -21 -16 14 -38 -20 -22 -34
15 -14 59 -18 51 -5 -8 13 26 70 42 70 7 0 13 6 13 13 0 7 6 21 13 31 11 15
17 16 35 7 20 -11 21 -10 11 18 -6 16 -17 32 -26 35 -11 5 -14 2 -9 -10z"/>
<path d="M763 2063 c-15 -16 -18 -23 -8 -23 7 0 16 -6 18 -12 4 -10 6 -10 6 0
1 6 8 12 16 12 8 0 15 5 15 10 0 6 -5 10 -11 10 -5 0 -8 4 -4 9 12 20 -11 16
-32 -6z"/>
<path d="M670 1841 c0 -6 5 -13 10 -16 6 -3 10 1 10 9 0 9 -4 16 -10 16 -5 0
-10 -4 -10 -9z"/>
<path d="M558 1805 c2 -14 -3 -35 -11 -48 -10 -15 -12 -29 -6 -38 8 -13 13 -6
10 14 0 4 4 7 9 7 6 0 10 9 10 21 0 11 4 18 9 15 5 -3 14 1 20 8 10 11 7 18
-11 30 -31 22 -36 20 -30 -9z"/>
<path d="M695 1800 c3 -5 8 -10 11 -10 2 0 4 5 4 10 0 6 -5 10 -11 10 -5 0 -7
-4 -4 -10z"/>
<path d="M482 1640 c-17 -19 -43 -50 -57 -69 -14 -19 -25 -28 -25 -20 0 12 -2
12 -9 0 -5 -8 -18 -12 -31 -8 -20 5 -20 4 -8 -11 8 -9 13 -23 12 -29 -1 -7 -2
-17 -3 -23 0 -5 -8 -10 -16 -10 -8 0 -12 -6 -9 -13 6 -18 -22 -42 -31 -27 -3
5 -14 10 -23 9 -12 0 -11 -3 6 -9 38 -16 26 -36 -18 -30 -12 1 -12 -1 -3 -11
9 -9 8 -18 -5 -38 l-16 -26 25 21 c13 12 30 19 38 16 10 -3 12 0 8 11 -3 9 0
23 8 31 8 8 15 19 15 25 0 5 7 14 16 19 9 5 15 12 15 15 -3 20 0 27 12 27 6 0
19 15 28 32 21 43 43 56 70 40 19 -12 19 -11 9 9 -15 28 3 74 25 65 16 -6 18
0 7 24 -6 12 -14 8 -40 -20z"/>
<path d="M4606 1591 c-3 -5 -15 -7 -26 -4 -27 7 -27 -21 0 -44 11 -10 20 -22
20 -28 0 -5 7 -23 15 -39 8 -15 12 -33 8 -39 -3 -6 -1 -7 5 -3 15 9 52 -52 44
-72 -4 -11 -1 -14 11 -9 8 3 21 -1 28 -9 8 -10 15 -12 23 -4 7 7 4 14 -8 23
-18 13 -18 14 0 31 17 18 17 18 -15 11 -24 -5 -32 -4 -30 7 3 25 -1 39 -10 33
-6 -3 -8 4 -6 15 2 11 0 20 -6 20 -5 0 -9 7 -9 15 0 8 5 15 12 15 6 0 9 3 6 6
-4 3 -15 1 -27 -5 -28 -16 -47 18 -32 60 10 28 8 38 -3 20z"/>
<path d="M4500 1583 c0 -15 29 -49 30 -35 0 7 -7 20 -15 28 -8 9 -15 11 -15 7z"/>
<path d="M4540 1512 c0 -15 5 -19 20 -15 12 3 19 6 18 7 -2 1 -11 8 -20 15
-16 12 -18 11 -18 -7z"/>
<path d="M4647 1313 c-4 -3 -7 -11 -7 -17 0 -6 5 -5 12 2 6 6 9 14 7 17 -3 3
-9 2 -12 -2z"/>
<path d="M277 1283 c-11 -11 -8 -33 5 -33 6 0 8 3 5 7 -4 3 -2 12 4 20 11 13
-2 19 -14 6z"/>
</g>
</svg>
